<svg id="Calque_1" data-name="Calque 1" xmlns="http://www.w3.org/2000/svg" viewBox="0 0 508.05 308.17"><defs><style>.cls-1,.cls-3{fill:#231f20;}.cls-1{fill-rule:evenodd;}.cls-2{fill:none;}</style></defs><title>check</title><path class="cls-1" d="M500.81,121.81l-3.93-4.09,6.14-.14C398.35,202.29,298.9,322.36,194.31,407.67c6.19-12.88,46.73-43.17,58.25-59.91-0.45-1.54-20,19.05-20.56,17,10-13.78,40.62-42.49,51.62-48.06,38.87-39.66,77.13-83.61,116.6-119.23,10.55-8.45,6.13-2.76,9.8-4.7,31.5-34.05,72-68.33,89.44-78.86l0.56-.34,0.24,0.32C505.33,120.69,506.05,124,500.81,121.81Z" transform="translate(-1.97 -113.54)"/><path class="cls-1" d="M228.22,383.5c-3.23,3.56,3.2-1.24,1.41,1.07-10.49,9.34-23.28,18.5-34.57,26.39L195,406l5.47,6.56-2.75.06,2.95-2.05c-2.28.31,5.88-9.14,16.31-16.39,1.53-.46-3.88,5.08-1.37,3.77,8.38-6.1,14-13.3,20.1-18.87,3.92-2.82,6.21-4.22,7-4.3-13.2,13.86-27.91,26.95-43.16,39.73l-0.42.35-0.33-.34-6-6v0.06c26.2-21.62,53.6-42.54,77.46-65.09C271.05,346.38,246.77,371.71,228.22,383.5Z" transform="translate(-1.97 -113.54)"/><path class="cls-2" d="M245,360.94c-16.61,14.57-34.23,30.47-52.53,47.31l-0.3.28,0.32,0.29,6.24,5.68,0.36,0.33,0.37-.35c89.6-82.79,194.38-186.59,277.28-266,38-36.4-28.66,27.45,9.34-9" transform="translate(-1.97 -113.54)"/><path class="cls-3" d="M259.34,345.7c-22.36,19.72-45,40.28-67.93,61.45l-1.5,1.39,1.57,1.42,6.25,5.66,1.36,1.24,1.4-1.3c93.35-86.64,189.79-182.68,281.45-270.42l13.89-16.57-15,14.32L467,159.47l12.15-11.64C490.4,137,517.87,107.44,493,131.26L480.87,142.9c-11,10.62-38.91,40.51-13.89,16.57l15-14.32c11.25-10.77,38.78-40.4,13.89-16.57C399,221.3,296.26,324.05,198.4,413.38l1.34,0-6.2-5.72,0,1.77q18.69-17,37.09-33.22C240.06,367.89,272.65,334,259.34,345.7Z" transform="translate(-1.97 -113.54)"/><polygon class="cls-3" points="508.06 13.94 200.92 308.17 194.57 302.61 501.71 8.38 508.06 13.94"/><path class="cls-1" d="M200.7,408.23q7.43-3,14.91-6.28l-0.37,3C159.46,349.6,86.64,298.27,32.48,242.5c8.12,3.07,28.57,26,39.3,32.09,0.91-.35-12.58-11.11-11.34-11.55,8.86,5.33,27.84,22.34,31.78,28.71,26,21.44,54.63,42.27,78.25,64.28,5.67,5.94,2,3.56,3.36,5.68a397.3,397.3,0,0,1,44.09,40.19l2.36,2.55-2.81,1.1C204.57,410.59,196.82,412.26,200.7,408.23Z" transform="translate(-1.97 -113.54)"/><path class="cls-1" d="M48.88,261.75c-2.32-1.77.92,1.87-.58,0.91a232.53,232.53,0,0,1-17.78-19.53l2.28,0.28-7,2.31c1.17,0.18-3.22,3.13-9,5.49l0.34-2.73c0.79,0.83,1.58,1.71,2.34,2.63,0.36,0.9-3.27-2.08-2.35-.63,4.13,4.75,8.78,7.76,12.47,11.17,1.91,2.22,2.88,3.54,3,4-5.88-4.7-11.59-9.8-17.21-15.13l-1.12-1.07,1.33-.62c5.36-2.49,10.82-4.87,16.34-7.2h0c14.45,14.71,28.55,30.19,43.44,43.45C73.59,285.72,57,272.36,48.88,261.75Z" transform="translate(-1.97 -113.54)"/><path class="cls-2" d="M63.41,270.72c-9.68-9.28-20.22-19.1-31.38-29.3l-0.11-.1-0.15.07-16,7.87-0.69.34,0.59,0.53C68.69,298,132.29,352,181.72,395.39c24,21.08-18.11-15.9,5.91,5.18" transform="translate(-1.97 -113.54)"/><path class="cls-3" d="M73.38,278.6c-13.1-12.5-26.74-25.14-40.74-37.87l-0.57-.52-0.72.36-16,7.9-1.86.92,1.57,1.41C69.85,300,129.3,350.3,184,398.36l10.76,7.53-9.45-8.3-10.76-7.53,7.68,6.74c7.12,6.25,26.47,21.32,10.76,7.53l-7.68-6.74c-7-6.13-26.55-21.41-10.76-7.53l9.45,8.3c7.11,6.24,26.48,21.34,10.76,7.53C136.8,355,73.1,301.35,16.23,249.49l-0.07.54,16-7.78-0.82-.1q11.25,10.41,22,20.69C58.95,268.1,81.18,286,73.38,278.6Z" transform="translate(-1.97 -113.54)"/><polygon class="cls-3" points="190.11 296.14 0 147.27 12.98 138.84 203.09 287.72 190.11 296.14"/></svg>