<?xml version="1.0" encoding="utf-8"?>
<!-- Generator: Adobe Illustrator 18.0.0, SVG Export Plug-In . SVG Version: 6.00 Build 0)  -->
<!DOCTYPE svg PUBLIC "-//W3C//DTD SVG 1.1//EN" "http://www.w3.org/Graphics/SVG/1.1/DTD/svg11.dtd">
<svg version="1.1" id="Layer_1" xmlns="http://www.w3.org/2000/svg" xmlns:xlink="http://www.w3.org/1999/xlink" x="0px" y="0px"
	 viewBox="0 0 841.9 595.3" enable-background="new 0 0 841.9 595.3" xml:space="preserve">
<g>
	<g>
		<g>
			<g>
				<g>
					<path fill-rule="evenodd" clip-rule="evenodd" fill="#1D1D1B" d="M512.6,300.1c1.6-17.8,2.7-35.9,3.4-54.3
						c0.4-9.2,0.6-18.5,0.8-27.8c0.1-4.7,0.2-9.3-0.2-13.9c-0.4-4.6-1.1-9.3-2.2-13.8c-4.2-18.2-14.3-35.3-28.5-47.7
						c-3.6-3.1-7.3-6-11.4-8.4c-4-2.5-8.2-4.6-12.6-6.4c-4.3-1.8-8.9-3.2-13.4-4.2c-4.6-1-9.3-1.7-13.9-1.8
						c-1.1-0.1-2.3-0.1-3.6-0.1l-1.8,0l-0.5,0c0.1,0,0,0,0,0l-0.1,0l-0.2,0l-0.9,0l-7.2,0.2c-4.8,0.1-9.7,0.2-14.2,0.5
						c-9.2,0.8-18.3,3-26.7,6.8c-8.4,3.7-16.1,8.8-22.9,14.9c-3.4,3-6.5,6.4-9.4,9.9c-1.5,1.7-2.8,3.6-4.1,5.4
						c-1.3,1.9-2.5,3.7-3.7,5.7c-4.7,7.7-8.2,16.1-10.5,24.8c-1.1,4.3-2.1,8.7-2.6,13.2c-0.2,1.1-0.2,2.2-0.4,3.3
						c-0.1,1.1-0.2,2.2-0.3,3.3l-0.2,3.5l-0.1,3.4c-0.6,18.5-1.5,36.7-3,54.6c-2.6-7-2.3-23.7-1.9-41.3c0.1-4.4,0.2-8.8,0.3-13.2
						c0-1.1,0-2.2,0-3.2c0-1.1,0.1-2.2,0.1-3.2c0-2.1,0.2-4.2,0.4-6.3c0.7-8.2,2-15.3,2.5-20.8c-0.6-0.6-2.9,6.6-4.1,13.9
						c-0.4,1.8-0.5,3.7-0.8,5.4c-0.2,1.7-0.4,3.4-0.6,4.8c-0.1,0.7-0.2,1.3-0.2,1.8c-0.1,0.5-0.1,1-0.2,1.3c-0.2,0.7-0.4,1-0.6,0.9
						c-0.2-1.1-0.4-2.3-0.4-3.6c-0.1-1.4-0.1-2.9-0.1-4.5c0-1.5,0.1-3.2,0.2-4.9c0.1-1.7,0.4-3.4,0.6-5.2c1-7.2,3.3-15,6.6-22.2
						c3.2-7.2,7.6-13.7,11.8-18.6c1.1-1.2,2.1-2.4,3.2-3.4c1.1-1,2-2,3-2.8c1-0.8,1.9-1.6,2.8-2.2c0.9-0.6,1.7-1.1,2.4-1.5
						c5.2-5.5,11.1-10.5,17.5-14.7c6.4-4.3,13.5-7.7,21-10.3c7.4-2.6,15.3-4.1,23.3-4.7c2.1-0.2,3.8-0.2,5.7-0.3l5.5-0.3l5.5-0.3
						l2.8-0.1l3-0.1l1.4,0c0.5,0,0.9,0,1.5,0l3.2,0.1c1.1,0,2.1,0.1,3.1,0.2l3,0.3c4,0.5,8,1.2,11.9,2.3c3.9,1,7.7,2.3,11.5,3.8
						c3.7,1.6,7.3,3.3,10.8,5.3c13.9,8,25.3,19.6,33.1,32.8c0.9,1.7,1.6,3.1,2.1,4.3c0.5,1.2,0.8,2.1,1,2.8c0.5,1.4,0.4,2.1,0.3,2.4
						c-0.3,0.7-1.2,0.1-0.8,2.4c1.1,2,2.1,4,3.1,6.1c0.9,2.1,1.9,4.2,2.6,6.4c1.6,4.3,2.8,8.9,3.8,13.5c1,4.6,1.4,9.2,1.7,13.9
						c0,1.2,0,2.3,0.1,3.5l0,1.7l0,1.6c0,2.2-0.1,4.3-0.1,6.4c-0.3,17-1.2,33.1-2.4,46.4C519.7,294.2,515.9,309.8,512.6,300.1z"/>
					<path fill-rule="evenodd" clip-rule="evenodd" fill="#1D1D1B" d="M328.6,227.8c0.4,5,1.4-3.3,1.8-0.3
						c-0.7,19.3-4.5,41.3-7.1,57.9c0.8-1.2,1.6,3,1.7,9.3c-1-1-2.1-2.1-3.2-3.2c4.3,0,9.6,0.3,14.9,1.1c1.5,0.8-6.6,1-3.8,1.9
						c8.9,1.2,17,0.5,24.4,0.3l0,0l0,0c0-1.5,0-3,0-4.5c0.7-5,1.3-7.8,1.8-8.4c0.2,4.3,0.3,8.6,0.4,12.9l0,2.2l-2.2,0
						c-11.7,0.1-23.6-0.2-35.6-0.8l-1.4-0.1l0.1-1.3c1.1-21.3,3.1-42.9,4.9-64.3c0.4-5.4,0.8-10.7,1.3-16.1l0.1-1l0-0.3l0,0
						c0-0.1,0,0.1,0,0.1l0-0.1l0-0.1l0-0.5l0.2-2l0.2-2l0.3-1.8c0.3-2.4,0.8-4.9,1.3-7.3c2.1-9.8,5.5-19,10-27.6
						c1,1.3-2.2,9.5-4.7,20.2c-0.3,1.4-0.6,2.7-0.9,4.1c-0.3,1.4-0.5,2.9-0.8,4.3c-0.2,1.5-0.5,2.9-0.7,4.4l-0.3,2.1l-0.2,1.1
						l-0.1,0.5l-0.1,0.6c-0.1,0.8-0.2,1.7-0.2,2.5l-0.1,1.2l0,0.3l0,0.1l0,0c0,0.2,0-0.2,0-0.2l0,0l0,0.2l-0.1,0.6
						c-0.2,1.6-0.3,3.3-0.5,4.8C329.7,221.9,329.2,224.9,328.6,227.8z"/>
					<g>
						<g>
							<path fill="none" d="M324.7,199c-0.3,1.8-0.6,3.6-0.9,5.4c-0.2,1.8-0.5,3.6-0.5,5.5c-0.1,0.9-0.1,1.9-0.2,2.8
								c0,0.9-0.1,1.9-0.1,2.8c-0.1,1.9-0.1,3.8-0.2,5.8c-0.2,7.7-0.5,15.6-0.7,23.6c-0.4,16.1-0.8,32.7-1,49.7l0,0.8l0.8,0
								c11.7,0.1,23.5,0.3,35.6,0.4l1.2,0l0-1.2c0.1-14.6,0.2-29.5,0.3-44.5c0-7.5,0-15.1,0-22.6c0-3.8,0-7.6,0-11.4l0-2.9l0.1-2.8
								c0-0.9,0.1-1.9,0.2-2.8c0.1-0.9,0.2-1.8,0.3-2.8c1-7.4,3.5-14.5,7.2-21c3.8-6.4,8.8-12.1,14.9-16.5c6-4.4,13-7.4,20.3-8.8
								c1.8-0.4,3.7-0.6,5.5-0.7c0.9-0.1,1.9-0.1,2.8-0.1c0.9,0,1.9,0,2.8,0c3.8,0,7.6,0,11.4-0.1c3.8,0,7.5-0.1,11.2,0.4
								c3.7,0.5,7.3,1.4,10.8,2.7c7,2.6,13.3,6.7,18.5,11.9c5.2,5.2,9.4,11.4,12.2,18.1c2.8,6.7,4.3,13.9,4.5,21.1
								c0.2,29,0.3,57.1,0.3,83.5c0,2.9,0,5.4,0,7.5l0,0.3l0.3,0c17.4,0,9,0,0,0l-0.3,0l0-0.3c0-9.8,0-20.4,0,0l0,0.3l0.3,0
								c1.8,0,3.8,0,6,0"/>
							<path fill="#1D1D1B" d="M329.1,177.8c-1.9,4.3-3.4,8.9-4.7,13.5c-1.3,4.6-2.1,9.4-2.6,14.3c-0.3,2.4-0.4,4.9-0.5,7.3
								c-0.1,2.4-0.1,4.9-0.2,7.3c-0.1,4.9-0.3,9.8-0.4,14.7c-0.5,19.7-0.9,39.6-1.1,59.8l0,2.3l2.4,0c11.8,0.1,23.7,0.2,35.6,0.4
								l2.7,0l0-2.7c0.1-14.9,0.1-29.9,0.2-45c0-7.5,0-15.1,0-22.6c0-3.8,0-7.6,0-11.3l0-2.8l0.1-2.7l0.2-2.7l0.3-2.7
								c1-7.1,3.4-14.1,7.1-20.3c3.7-6.2,8.6-11.7,14.4-16c5.8-4.3,12.6-7.2,19.6-8.6c0.9-0.2,1.8-0.3,2.7-0.4
								c0.9-0.1,1.8-0.2,2.6-0.3c0.8-0.1,1.8-0.1,2.8-0.1l0.7,0l0.6,0l1.4,0l11.4-0.1c1.9,0,3.8-0.1,5.6,0c0.9,0,1.8,0,2.7,0.1
								c0.9,0.1,1.8,0.1,2.7,0.3c3.6,0.4,7.1,1.3,10.5,2.5c6.8,2.5,13,6.5,18.2,11.6c5.2,5.1,9.3,11.3,12.1,18
								c2.8,6.7,4.3,13.9,4.3,21.3c0.2,29.9,0.3,59.7,0.3,89l0.1,1.2l0.2,1.6l1.2-0.1l21.4-2.3c-7.1,0-14.3,0-21.4,0l0.9,0.9l0-0.3
								c-0.8-7.5-1.7-15-2.5-22.6c0,5.9,0,11.8,0,17.7c0,1.5,0,3.3,0.1,5.2l0,1.5l1.4,0c18.4-0.4,50-2.4,17.3-2.4
								c-5.8,0-11.5,0-17.3,0l0.9,0.9l0-0.3c0-16.1-2.4-58.9-2.5-22.6c0,7.2,0,14.5,0,21.7c0,0.4,0,0.8,0,1.2l0,1.5l1.5,0
								c17.1-0.1,56.7-2.5,21.4-2.5c-7.1,0-14.2,0-21.4,0c0.3,0.3,0.6,0.6,0.9,0.9c-0.1-29.6-0.2-59.6-0.4-89.9
								c0-7.6-1.5-15.3-4.5-22.3c-2.9-7.1-7.2-13.5-12.7-18.9c-5.4-5.4-12-9.6-19.2-12.1c-3.6-1.3-7.3-2.2-11.1-2.6
								c-3.8-0.5-7.6-0.4-11.4-0.4l-11.4,0.1c-3.8,0-7.6,0.2-11.3,1c-7.4,1.5-14.5,4.6-20.6,9.1c-6.1,4.5-11.2,10.3-15,16.8
								c-3.8,6.5-6.3,13.8-7.3,21.2c-0.5,3.7-0.6,7.5-0.6,11.2c0,3.8,0,7.5,0,11.3c0,7.5-0.1,15-0.1,22.5c-0.1,15-0.2,29.9-0.4,44.7
								l0.1-0.1c-11.9-0.2-23.8-0.4-35.6-0.6l0.7,0.7c0.5-25.2,1.3-49.9,2.3-74.1c0.1-1.6,0.1-3.9,0.1-6.4c0-0.3,0-0.6,0-1
								c0-0.3,0-0.6,0-0.9c0-0.7,0-1.4,0-2.1c0-0.7,0-1.5,0-2.2c0-0.7,0.1-1.4,0.1-2.2c0.3-5.9,1.2-12.6,2.5-18.1
								c1.2-5.5,2.7-10.1,3.3-12.2C331.5,173.4,331,173.6,329.1,177.8z"/>
						</g>
					</g>
				</g>
			</g>
		</g>
		<g>
			<g>
				<g>
					<g>
						<path fill-rule="evenodd" clip-rule="evenodd" fill="#1D1D1B" d="M511.5,211.3c0.8-10.9-0.6-22.4-4.6-33.3
							c-3.9-10.9-10.2-21.2-18.5-29.8c-8.3-8.6-18.6-15.4-29.9-19.7c-5.6-2.1-11.6-3.6-17.5-4.3c-3-0.4-6-0.6-9-0.6l-2.3,0l-0.6,0
							l-0.5,0l-1.1,0l-4.6,0.1l-9.2,0.2c-1.5,0-3.1,0.1-4.6,0.2l-2.2,0.1c-0.7,0-1.5,0.1-2.2,0.2c-5.9,0.6-11.8,1.9-17.4,3.7
							c-5.6,1.9-11,4.3-16.1,7.3c-5.1,3-9.8,6.5-14.1,10.4c-8.7,7.8-15.8,17.2-21,27.4c-5.3,10.2-8.8,21.3-10.5,32.5
							c-0.2-0.6-0.3-1.2-0.4-2c-0.1-0.8-0.1-1.6-0.1-2.5c0-1.8,0.2-3.9,0.5-6.2c0.8-4.6,2.3-9.9,4.3-15.2c2.1-5.3,4.7-10.4,7.3-14.9
							c2.5-4.5,5.1-8.4,6.7-11.5c-0.1-0.2-0.9,0.5-2,1.9c-0.5,0.7-1.2,1.5-1.8,2.4c-0.6,0.9-1.3,1.9-2,2.8c-2.6,3.9-4.8,8-5.2,7.4
							c0.9-2.8,2.5-6.5,4.9-10.3c2.4-3.8,5.4-7.9,8.8-11.4c3.4-3.6,7.1-6.6,10.5-8.9c3.4-2.2,6.5-3.7,8.5-4.3
							c3.9-2.7,8.1-5,12.5-7.1c4.4-2.1,9-3.8,13.7-5.1c4.7-1.3,9.6-2.3,14.5-2.8l3.7-0.3c1.3-0.1,2.4-0.1,3.6-0.2
							c2.4-0.1,4.7-0.2,7-0.3c2.3-0.1,4.7-0.2,7-0.3l0.9,0l0.2,0l0.1,0l0.3,0l0.4,0l1.8,0c1.2,0,2.3-0.1,3.6,0
							c1.3,0.1,2.6,0.1,3.8,0.2c1.2,0.1,2.5,0.3,3.7,0.4c2.5,0.4,4.9,0.7,7.3,1.3c9.7,2.1,18.7,6.2,26.6,11.4c1.9,1.5,3,2.5,3.7,3.2
							c0.6,0.7,0.8,1.1,0.8,1.3c0,0.5-0.6,0.4,0.2,1.6c9.5,6.3,17.8,15.3,23.5,25.1c2.9,4.9,5.2,9.9,6.9,14.8
							c1.7,4.9,2.8,9.6,3.4,14c1.3,8.7,0.7,15.6-0.2,19.5C513.7,213.4,512.6,214.2,511.5,211.3z"/>
						<path fill-rule="evenodd" clip-rule="evenodd" fill="#1D1D1B" d="M335.1,180.5c-0.9,2.9,1.5-1.6,1.2,0.3
							c-2.2,5-4.4,10.4-6.2,16c-1.8,5.5-3.2,11.2-4,16.3c-0.9,0-1.7-0.1-2.6-0.1c0.2-0.7,0.4-1.3,0.5-1.9c-0.5,0.6-0.7-1.3-0.3-4.3
							c0.4-3,1.5-7.1,3.3-11c0.7-0.8-0.5,4.3,0.5,2.6c2.7-6.4,3.9-12.3,6.3-17.3c1.7-2.8,2.9-4.1,3.3-4.3
							c-2.5,5.7-4.8,11.6-6.8,17.7c-2,6.1-3.9,12.3-5.1,18.7l-0.8,0c0.8-12.4,4.4-24.5,9.9-35.2c5.5-10.7,12.8-20.1,20.9-28
							c0.3,1-3.3,5.4-7.5,11.3c-2.1,3-4.4,6.3-6.5,9.6c-1.1,1.7-2.1,3.4-3.2,5c-0.5,0.8-1,1.6-1.5,2.4c-0.3,0.4-0.5,0.8-0.8,1.2
							C335.6,179.8,335.3,180.2,335.1,180.5z"/>
						<g>
							<g>
								<path fill="none" d="M340.4,163.1c-2.3,3.4-4.5,7-6.4,10.8c-1.9,3.8-3.6,7.9-5,12.1c-1.4,4.2-2.5,8.6-3.3,13.2
									c-0.7,4.5-1.2,9.2-1.3,13.9l0.7,0c0.7-5,1.9-10,3.3-15c1.4-5,3.2-9.9,5.2-14.8c4.1-9.7,9.6-19,16.7-27.2
									c7.1-8.1,15.9-15,25.9-19.4c4.9-2.4,10.2-3.9,15.6-5.2c2.7-0.5,5.4-1.1,8.1-1.4c1.4-0.2,2.7-0.4,4.1-0.5l4.2-0.2l2.1-0.1
									c0.6,0,1.4,0,2,0l4.1,0c2.8,0,5.5,0,8.3,0l4.1,0l4.1,0.2l2,0.1c0.7,0,1.4,0.1,2,0.2c1.4,0.2,2.7,0.3,4,0.5
									c10.8,1.3,21.2,4.8,30.4,9.9c4.6,2.7,8.8,5.7,12.7,9.2c3.8,3.5,7.3,7.3,10.4,11.3c6.1,8.1,10.7,17,13.9,26
									c1.5,4.1,2.3,6.9,2.7,8.6c0.4,1.7,0.5,2,0.6,2.1c-0.1-0.3-0.9-3.5-1.9-6.6c-1-3.2-2.2-6.2-2.3-6.5c0,0.1,0.2,0.5,0.8,2.1
									c0.6,1.6,1.6,4.4,2.8,8.6"/>
								<path fill="#1D1D1B" d="M348.1,151.6c-7.5,7.9-13.7,17.4-17.9,27.8c-4.3,10.5-6.6,21.9-6.8,33.6l2.7,0.1
									c0.7-5.1,1.9-10.3,3.4-15.4c1.5-5.1,3.3-10.1,5.4-14.9c4.2-9.7,9.8-19,16.9-26.9c3.5-4,7.5-7.6,11.8-10.8
									c2.1-1.6,4.4-3,6.6-4.4c2.4-1.2,4.7-2.6,7.1-3.6c2.4-1.2,5-2,7.5-2.9c1.3-0.4,2.6-0.7,3.9-1.1c1.3-0.4,2.6-0.7,3.9-1l4-0.8
									c1.3-0.3,2.6-0.4,4-0.5c1.3-0.1,2.6-0.4,4-0.4l4.1-0.2l2.1-0.1l0.1,0l0.1,0c-0.1,0,0,0,0,0l0.3,0l0.5,0l1,0l4.1,0l8.2-0.1
									l4.1,0l4,0.2c2.7,0.1,5.4,0.4,8.1,0.7c0.7,0.1,1.3,0.1,2,0.3l2,0.4l4,0.7c1.3,0.3,2.6,0.7,3.9,1l1.9,0.5
									c0.6,0.2,1.3,0.4,1.9,0.6l3.8,1.3c1.2,0.5,2.5,1,3.7,1.6l1.8,0.8l1.8,0.9c1.2,0.6,2.4,1.2,3.5,1.9c4.6,2.7,8.9,5.9,12.9,9.5
									c4,3.6,7.4,7.6,10.6,11.9c6.3,8.6,10.9,18.2,14.1,28.2c2,4.4,3.7,8.9,5.1,13.5c-0.9-4.6-2-9.1-3.4-13.5
									c-2-4.4-4.2-8.7-6.7-12.8c1.6,3.3,3,6.8,4.2,10.3c0.9,2.4,2,5.9,3.1,9.3c1,3.5,1.9,7,2.5,9.5c0.6,2.5,1,4,1.1,3.5
									c0.1-0.6-0.1-3.2-1.3-8.9c-0.8-3.7-1.8-7.3-2.9-10.9c-0.8-2.4-2.1-5.9-3.6-9.2c-1.5-3.3-3.3-6.5-4.7-8.7
									c-1.4-2.2-2.4-3.4-2.2-2.9c0.1,0.3,0.4,1,1.1,2.2c0.3,0.6,0.7,1.4,1.2,2.4c0.2,0.5,0.5,1,0.8,1.5c0.3,0.6,0.5,1.2,0.8,1.8
									c1.9,4.1,3.6,8.4,5,12.8c0.8,2.5,1.9,5.9,2.8,9.4c1,3.5,1.8,7,2.3,9.5c0.5,2.5,0.8,4.1,0.9,3.5c0.1-0.6,0-3.2-1-8.9
									c-2.1-11-5.8-21.9-11.3-32c-5.4-10-12.8-19.2-21.9-26.4c-4.6-3.5-9.6-6.6-14.8-9c-5.3-2.4-10.8-4.2-16.4-5.6
									c-5.7-1.2-11.4-2.1-17.2-2.3c-1.4-0.1-2.9-0.2-4.3-0.2l-4.4,0l-8.7,0.1l-4.4,0l-4.3,0.2c-2.9,0.1-5.8,0.5-8.6,0.9
									c-5.7,1-11.4,2.2-16.7,4.3c-0.7,0.3-1.4,0.5-2,0.7l-2,0.9l-2,0.9l-1,0.4l-1,0.5l-3.8,2l-3.6,2.3c-4.8,3.2-9.2,6.9-13.2,10.9
									c-8,8.2-14.1,18-18.8,28.2c-4.6,10.3-8,21.1-9.7,32.1l1.3,0.1c0.3-13.3,3.5-26.2,9.1-37.5c0.9-1.8,2.4-5,4.2-8.4
									c1.9-3.4,4-7,6.2-10c1-1.5,2.1-2.8,2.8-4c0.8-1.1,1.5-2,1.9-2.6C350.5,149.5,350.2,149.5,348.1,151.6z"/>
							</g>
						</g>
					</g>
				</g>
			</g>
		</g>
		<g>
			<g>
				<g>
					<g>
						<path fill-rule="evenodd" clip-rule="evenodd" fill="#1D1D1B" d="M482.9,211.6c1-7.8,0.6-16.1-1.2-24.2
							c-1.8-8.1-5.3-16-10.8-22.6c-5.4-6.6-13-11.4-21.2-14c-4.1-1.2-8.4-2.1-12.7-2.4c-1.1-0.1-2.1-0.2-3.2-0.2l-3.3,0l-1.6,0
							l-1.6,0l-3.3,0.1c-4.4,0.1-8.8,0.2-13.1,0.3l-3.1,0.3c-1.1,0.1-2.1,0.2-3.2,0.4c-2.1,0.4-4.2,0.7-6.3,1.3
							c-4.2,0.9-8.1,2.4-11.9,4.2c-3.8,1.8-7.3,4.1-10.4,6.8c-3.2,2.7-6,5.7-8.4,9c-2.4,3.3-4.4,6.9-6.1,10.7
							c-3.4,7.5-5.4,15.5-6.6,23.6c-1-3.2-0.1-11,2.5-18.7c1.3-3.8,2.9-7.6,4.7-10.9c1.7-3.2,3.3-6,4.5-8.4
							c-0.1-0.2-0.6,0.4-1.4,1.4c-0.4,0.5-0.8,1.1-1.2,1.8c-0.4,0.7-0.9,1.3-1.3,2.1c-0.4,0.7-0.9,1.5-1.3,2.1
							c-0.4,0.7-0.7,1.3-1,1.9c-0.6,1.1-1.1,1.7-1.2,1.5c0.3-1,0.7-2.2,1.2-3.5c0.6-1.3,1.2-2.7,2-4.1c1.6-2.9,3.8-5.8,6.3-8.4
							c0.6-0.6,1.3-1.2,1.9-1.8c0.3-0.3,0.6-0.6,1-0.9c0.3-0.3,0.7-0.5,1-0.8c0.7-0.5,1.3-1,2-1.5c0.7-0.5,1.3-0.8,2-1.2
							c0.6-0.4,1.2-0.7,1.8-1.1c0.6-0.3,1.2-0.5,1.7-0.8c1.1-0.4,2-0.8,2.7-0.9c6-3.4,12.6-5.7,19.4-7.2l2.6-0.5
							c0.9-0.2,1.7-0.3,2.6-0.4l2.6-0.4l0.6-0.1l0.3,0l0.5,0l1.3-0.1c3.4-0.2,6.7-0.3,10.1-0.5c1.7-0.1,3.4-0.2,5-0.2l1.3-0.1l1.4,0
							l2.5,0c0.8,0,1.6,0,2.5,0l2.7,0.2c0.9,0.1,1.8,0.1,2.7,0.2c0.9,0.1,1.7,0.3,2.6,0.4c6.9,1.1,13.7,3.6,19.5,7.4
							c2.8,2.2,3.3,2.9,3.3,3.2c0,0.3-0.5,0.3,0.1,1.2c6.8,4.7,12.3,11.9,15.5,19.4c3.2,7.5,4.6,15.1,4.9,21.3
							c0.3,6.2-0.4,11.1-1.2,13.9c-0.4,1.4-0.9,2.2-1.3,2.4C483.6,213.1,483.2,212.7,482.9,211.6z"/>
						<path fill-rule="evenodd" clip-rule="evenodd" fill="#1D1D1B" d="M361,186.6c-0.5,2.1,1-1.2,0.8,0.1
							c-1.4,3.9-2.9,8.1-4.1,12.4c-1.2,4.3-2.2,8.6-2.6,12.3c0.2-0.3,0.5,0.3,0.7,1.4c-0.8,0-1.7,0.1-2.6,0.1
							c-0.2-2.1-0.1-6,1.1-9.6c0.4-0.6,0.1,3.1,0.6,1.8c1.3-4.8,1.7-9.1,3.1-12.8c0.6-1,1-1.8,1.3-2.3c0.4-0.5,0.6-0.8,0.8-0.9
							c-2.8,7.5-4.7,15.5-5.2,23.8l-0.9,0c0-4.7,0.7-9.3,1.6-13.9c1-4.5,2.4-9,4.2-13.2c3.5-8.4,8.6-15.8,14.8-21.5
							c0.2,0.7-2.4,3.7-5.2,8c-0.7,1.1-1.5,2.2-2.2,3.4c-0.4,0.6-0.7,1.2-1.1,1.8c-0.4,0.6-0.7,1.2-1.1,1.8
							C363.6,181.9,362.3,184.3,361,186.6z"/>
						<g>
							<g>
								<path fill="none" d="M364.2,174c-3.4,5.2-6,11.4-7.7,18c-1.7,6.6-2.6,13.7-2.4,21.1l0.6,0c0.1-7.2,1.5-14.5,4.1-21.4
									c2.6-7,6.6-13.5,11.7-19.2c5.1-5.6,11.4-10.3,18.4-13.5c7-3.2,14.7-4.8,22.5-4.8c3.9,0,7.8,0,11.7-0.1
									c3.9,0,7.7-0.2,11.5,0.2c7.6,0.8,14.9,3.2,21.3,6.9c6.4,3.7,12,8.7,16.4,14.3c4.4,5.6,7.6,11.9,9.7,18.3c1,3,1.4,5,1.7,6.2
									c0.3,1.2,0.3,1.7,0.3,1.5c0-0.1-0.1-0.7-0.3-1.6c-0.2-0.9-0.4-2-0.8-3.2c-0.3-1.1-0.7-2.3-0.9-3.1c-0.3-0.9-0.5-1.5-0.5-1.6
									c0-0.1,0.1,0.3,0.5,1.5c0.4,1.2,1,3.1,1.7,6.2"/>
								<path fill="#1D1D1B" d="M369.5,165.7c-5.7,6-9.9,13.5-12.5,21.7c-1.3,4.1-2.3,8.3-2.9,12.6c-0.6,4.3-0.9,8.7-0.7,13.1l2-0.1
									c0.1-7.4,1.5-14.8,4.2-21.7c2.7-6.9,6.7-13.4,11.8-18.9c5.1-5.5,11.3-10.1,18.1-13.1c3.4-1.5,7-2.7,10.7-3.5
									c3.7-0.8,7.4-1.1,11.3-1.1c3.9,0,7.7-0.1,11.6-0.1l5.8,0l2.8,0.1l2.8,0.2c7.5,0.8,14.8,3.2,21.3,7c6.5,3.8,12.2,9,16.6,14.9
									c4.5,6,7.8,12.8,9.7,19.9c1.3,3.2,2.3,6.5,3,9.9c-0.3-3.3-1-6.6-1.8-9.8c-1.3-3.2-2.8-6.3-4.5-9.3c1.1,2.4,2.1,4.9,2.8,7.4
									c0.3,0.9,0.6,1.9,0.9,3.1c0.3,1.2,0.6,2.4,0.9,3.7c0.3,1.3,0.6,2.5,0.7,3.7c0.1,0.6,0.2,1.2,0.3,1.7c0.1,0.5,0.1,1,0.2,1.5
									c0.3,1.8,0.4,2.9,0.5,2.5c0-0.2,0.1-0.8,0.1-1.8c0-1-0.1-2.6-0.4-4.6c-0.4-2.7-0.9-5.3-1.6-7.9c-0.1-0.4-0.3-0.9-0.4-1.5
									c-0.2-0.5-0.4-1.1-0.6-1.6c-0.4-1.2-0.9-2.3-1.4-3.6c-1.1-2.4-2.3-4.7-3.3-6.2c-1-1.6-1.7-2.4-1.6-2.1
									c0.1,0.2,0.3,0.7,0.8,1.6c0.2,0.5,0.5,1,0.9,1.7c0.3,0.7,0.7,1.5,1.1,2.4c1.3,3,2.5,6,3.3,9.2c0.2,0.9,0.5,1.9,0.8,3.1
									c0.3,1.2,0.6,2.4,0.8,3.7c0.3,1.3,0.4,2.5,0.6,3.7c0.1,1.2,0.3,2.3,0.4,3.2c0.2,1.8,0.4,2.9,0.4,2.5
									c0.1-0.4,0.2-2.3-0.2-6.4c-0.8-7.9-3.2-15.7-7-22.8c-3.8-7.1-9.1-13.5-15.5-18.5c-6.4-5-14-8.6-22-10.4
									c-4-0.9-8.1-1.3-12.2-1.3l-12.3,0.1c-4.1,0-8.2-0.1-12.2,0.5c-4,0.5-8,1.5-11.8,2.9c-7.6,2.8-14.5,7.4-20.2,13.1
									c-5.7,5.7-10.2,12.5-13.2,19.9c-3,7.4-4.6,15.2-4.8,23.1l0.8,0c-0.2-5.2,0.4-10.4,1.3-15.5c0.9-5,2.4-9.9,4.3-14.5
									c0.1-0.3,0.3-0.7,0.5-1.2c0.2-0.4,0.4-0.9,0.6-1.5c0.2-0.5,0.5-1.1,0.7-1.7c0.3-0.6,0.6-1.2,0.9-1.8
									c0.3-0.6,0.6-1.3,0.9-1.9c0.3-0.6,0.7-1.3,1-1.9c0.7-1.2,1.4-2.4,2.2-3.5c0.8-1.1,1.4-2.1,2-2.9c0.6-0.8,1.1-1.4,1.4-1.8
									C371.2,164.1,371,164.1,369.5,165.7z"/>
							</g>
						</g>
					</g>
				</g>
			</g>
		</g>
		<g>
			<g>
				<path fill="none" stroke="#373735" stroke-width="0.1" d="M511.9,213"/>
			</g>
		</g>
	</g>
	<g>
		<g>
			<g>
				<path fill-rule="evenodd" clip-rule="evenodd" fill="#1D1D1B" d="M570.6,399.7c1.7-18.6,2.8-37.6,3.6-56.8
					c0.2-4.8,0.3-9.6,0.5-14.5c0.2-4.8,0-9.6-0.7-14.4c-1.3-9.5-4.6-18.9-9.6-27.3c-5-8.4-11.7-15.8-19.7-21.5
					c-8-5.7-17.3-9.7-27-11.4c-1.2-0.2-2.4-0.4-3.6-0.5l-1.8-0.2l-1.8-0.1l-1.8-0.1l-1.9,0l-1.8,0l-1.9,0c-5,0.1-10,0.2-15.1,0.3
					c-10,0.2-20.1,0.5-30.2,0.7c-40.2,1-80.5,2-120.1,2l-1.9,0c-0.6,0-1.2,0-1.8,0c-1.2,0.1-2.3,0-3.5,0.1c-2.3,0.2-4.6,0.4-6.9,0.8
					c-4.5,0.8-9,2-13.2,3.7c-8.5,3.4-16.3,8.6-22.9,15c-6.6,6.4-12,14.1-15.9,22.4c-3.9,8.4-6.4,17.4-7.4,26.7
					c-1.3-3.6-1.5-10.1,0.2-17.7c1.7-7.6,5.3-16.2,10.6-23.9c5.3-7.7,12.2-14.5,19.1-19.6c6.9-5.1,13.8-8.6,18.8-11.4
					c0.1-0.4-1.8,0-4.5,0.9c-2.8,1-6.4,2.7-9.8,4.6c-6.9,3.9-12.9,9.2-13.1,8c1.5-2,3.6-4.1,6.1-6.3c2.5-2.1,5.5-4.3,8.9-6.3
					c3.4-1.9,7.1-3.7,11.1-5.1c4-1.4,8.2-2.3,12.4-2.9c1.1-0.1,2.1-0.3,3.2-0.4c1.1-0.1,2.1-0.1,3.1-0.2c1,0,2.1,0,3.1,0
					c0.5,0,1,0,1.5,0c0.5,0,0.9,0,1.4,0.1c3.7,0.2,7.1,0.4,10.4,0.7c6.4,0.5,11.7,1.3,15,2.3c30.5-1,61.6-2.9,92.5-4.4
					c15.4-0.7,30.8-1.4,45.9-1.7l2.8-0.1l1.4,0l0.7,0l1,0l2.8,0c1.1,0,2.3,0.1,3.4,0.2c1.2,0.1,2.2,0.2,3.3,0.3
					c1.1,0.1,2.1,0.3,3.2,0.5c1.1,0.2,2.1,0.4,3.2,0.6l3.1,0.8c4.1,1.1,8.1,2.6,12,4.3c3.8,1.8,7.5,3.9,10.9,6.3
					c0.8,0.7,1.6,1.3,2.2,1.8c0.7,0.6,1.2,1.1,1.7,1.6c1,0.9,1.7,1.7,2.2,2.3c1,1.3,1.3,1.9,1.3,2.3c0,0.8-1.1,0.6,0.2,2.7
					c7.5,6.1,14,14,18.6,22.8c4.7,8.8,7.5,18.6,8.5,28.3c0.1,1.2,0.2,2.4,0.3,3.6c0,1.2,0.2,2.4,0.1,3.6c0,1.2,0,2.4,0,3.5
					c0,1.1-0.1,2.2-0.1,3.2c-0.2,4.3-0.3,8.5-0.6,12.6c-0.4,8.2-1,15.9-1.6,22.8C578,393.5,574.1,409.9,570.6,399.7z"/>
				<path fill-rule="evenodd" clip-rule="evenodd" fill="#1D1D1B" d="M283.1,286.4c-1.2,2.1-0.4,1.6,0.4,1c0.9-0.6,1.9-1.4,1.3-0.1
					c-5.4,7-10.4,15.5-13.7,24.7c-0.8,2.3-1.6,4.6-2.2,7c-0.3,1.2-0.6,2.3-0.8,3.4c-0.2,0.5-0.2,1.2-0.4,1.8
					c-0.1,0.6-0.2,1.2-0.3,1.8l-0.1,0.5l0,0.2l0,0.1c0-0.2,0,0,0-0.1l0,0l0,0l0,0.1l-0.1,0.9c-0.1,0.6-0.2,1.2-0.3,1.8
					c-0.2,1.2-0.4,2.4-0.6,3.5c-0.4,2.3-0.7,4.6-1.1,6.8c1.5-2,2.8,11.6,0.6,25.4c-0.8,1.6-1.1-6.9-1.9-3.9
					c-1.5,11.3-0.1,21.2-0.3,30.3c-0.7,5.2-1.4,8.1-1.9,8.8c-0.7-14.9-0.5-30.2,0.2-45.5c0.3-7.7,0.8-15.4,1.4-23.2
					c0.1-1.9,0.3-3.9,0.4-5.8l0.3-2.9l0.4-2.9c0.7-3.8,1.5-7.6,2.7-11.2c4.7-14.6,14-27.2,25.4-35.8c11.5-8.7,25.1-13.4,38.4-14.1
					c-0.6,1.6-9.3,2.9-19.2,7.4c-5,2.2-10.2,5.2-15.2,8.8c-2.5,1.8-4.9,3.6-7.1,5.6c-1.2,0.9-2.2,1.9-3.3,2.9
					C285.2,284.5,284.1,285.4,283.1,286.4z"/>
				<g>
					<g>
						<path fill="none" d="M300.2,263.2c-7.7,4.2-14.9,10.2-20.7,17.6c-5.9,7.3-10.5,16.1-13.3,25.6c-1.4,4.8-2.3,9.7-2.8,14.8
							c-0.4,5.1-0.4,10.2-0.5,15.3c-0.2,10.3-0.3,20.7-0.5,31.3c-0.1,10.6-0.2,21.3-0.3,32.2c0,1.4,0,2.7,0,4.1c0,1.4,0,2.8,0.1,4.1
							l0.1,2.1c0.1,0.7,0.2,1.4,0.2,2.1l0.2,2.1l0.3,2.1c0.9,5.5,2.4,10.9,4.5,16.1c4.2,10.4,10.6,20.1,19,27.8
							c4.2,3.9,8.8,7.3,13.8,10.1c5,2.8,10.3,5,15.9,6.5c1.4,0.3,2.8,0.7,4.2,1c1.4,0.2,2.8,0.6,4.2,0.7l2.1,0.3
							c0.7,0.1,1.4,0.1,2.2,0.2c0.7,0,1.5,0.1,2.2,0.1l2.1,0c5.7,0,11.2,0,16.9,0c11.2-0.1,22.4-0.1,33.6-0.2
							c22.4-0.1,44.6-0.3,66.4-0.4c10.9-0.1,21.7-0.1,32.4-0.2c5.3,0,10.7-0.1,15.9-0.1c2.6,0,5.3,0,7.9-0.1l2-0.1l2-0.2
							c0.7-0.1,1.3-0.1,2-0.2l1.9-0.3c5.2-0.7,10.2-2.1,15.1-4c4.8-1.9,9.3-4.3,13.5-7.1c8.4-5.6,15.4-12.9,20.8-21.1
							c2-3,3.4-5.7,4.5-7.9c1.1-2.2,1.8-4,2.4-5.3c1-2.6,1.2-3.2,1.3-3.4c-0.1,0.2-0.6,1.6-1.4,3.6c-0.4,1-0.9,2.1-1.4,3.3
							c-0.6,1.2-1.1,2.4-1.8,3.6c-2.5,4.8-5.8,9.3-6.1,9.7c-0.2,0.2,0.5-0.6,2.1-3c1.6-2.4,4.2-6.4,7-13.1"/>
						<path fill="#1D1D1B" d="M320.6,253.8c-10.3,1.8-20.3,6.1-29,12.6c-8.6,6.5-16,15-21.1,24.8c-5.2,9.8-8.3,20.8-8.9,32.2
							c0,1.4-0.1,2.7-0.2,4.2l-0.1,4.1c0,2.8-0.1,5.5-0.1,8.3c-0.1,5.5-0.2,11.1-0.2,16.7c-0.1,11.1-0.2,22.3-0.3,33.6
							c0,2.8,0,5.6-0.1,8.4l0,4.2c0,1.5,0,2.9,0.1,4.4c0.3,5.8,1.2,11.7,2.8,17.3c1.5,5.7,3.7,11.2,6.5,16.4
							c2.8,5.2,6.1,10.1,10,14.6c3.9,4.5,8.3,8.5,13.2,11.9c4.9,3.4,10.1,6.3,15.7,8.4c5.6,2.2,11.4,3.6,17.3,4.3
							c1.5,0.2,3,0.3,4.5,0.4c0.7,0,1.4,0,2.2,0.1l1.1,0l0.5,0l0.6,0l8.6,0c11.4-0.1,22.9-0.1,34.3-0.2c22.9-0.2,45.7-0.3,68.5-0.5
							c11.4-0.1,22.7-0.2,34.1-0.2c5.7,0,11.3-0.1,17-0.1c2.8,0,5.6,0,8.5-0.1c1.4,0,2.9-0.1,4.3-0.2c0.7-0.1,1.4-0.1,2.2-0.2
							l2.1-0.3c5.7-0.8,11.3-2.4,16.6-4.6c5.3-2.2,10.3-5,14.9-8.4c4.6-3.4,8.8-7.3,12.5-11.6c3.7-4.3,6.9-9,9.5-14
							c1.5-3.8,2.7-7.6,3.6-11.4c0.9-3.9,1.5-7.8,1.8-11.7c-0.7,3.7-1.7,7.3-2.9,10.8c-1.2,3.5-2.7,7-4.4,10.3
							c-2.8,7.3-6.8,14.3-12,20.5c4.5-4.4,8.4-9.4,11.7-14.7c2.3-3.7,4.9-9.3,6.7-15.1c1.8-5.8,2.7-11.8,2.9-16.1
							c0-1.1,0.1-2,0.1-2.8c0-0.8,0-1.5-0.1-2c-0.1-1.1-0.2-1.5-0.3-1c-0.2,0.4-0.3,1.7-0.6,4c-0.3,2.3-0.8,5.7-1.9,10.2
							c-1.5,5.9-3.6,11.6-6.4,17c-1.9,3.7-4.9,8.8-8.5,13.5c-3.6,4.8-7.8,9-11,11.9c-0.8,0.7-1.5,1.4-2.2,1.9
							c-0.6,0.5-1.2,1-1.6,1.4c-0.8,0.7-1.1,1.1-0.6,0.9c0.4-0.2,1.6-0.8,3.6-2.1c2-1.4,4.8-3.5,8.3-6.9c2.8-2.7,5.3-5.6,7.6-8.7
							c2.3-3.1,4.4-6.4,6.2-9.8c2.1-3.8,4.4-9.5,5.8-15.4c1.5-5.9,2-11.9,2-16.2c0-2.1-0.1-3.8-0.3-4.9c-0.1-1.1-0.3-1.5-0.4-1
							c-0.1,0.4-0.2,1.8-0.4,4.1c-0.2,2.3-0.5,5.7-1.4,10.3c-1.9,10.3-6,20.2-11.9,28.9c-5.9,8.7-13.8,16.2-23,21.7
							c-9.2,5.4-19.7,8.7-30.4,9.3c-1.3,0-2.7,0.1-4,0.1l-4.1,0c-2.7,0-5.4,0-8.2,0.1c-5.4,0-10.9,0.1-16.4,0.1
							c-43.7,0.3-87.7,0.7-131.6,0.8c-5.5,0-10.9,0.2-16.5-0.3c-5.5-0.5-10.9-1.8-16.1-3.6c-10.4-3.7-19.7-9.9-27.3-17.8
							c-7.6-7.9-13.2-17.5-16.8-27.7c-1.8-5.1-2.9-10.4-3.6-15.8c-0.1-1.3-0.3-2.7-0.4-4c-0.1-1.3-0.2-2.7-0.2-4c-0.1-2.7,0-5.4,0-8
							c0.3-21.4,0.6-42.5,1.1-63.4c0.1-2.6,0.1-5.2,0.2-7.8c0.1-2.6,0.3-5.1,0.7-7.6c0.7-5,1.9-10,3.5-14.7
							c3.3-9.4,8.5-18.1,15.1-25.2c2.3-2.4,6-6.5,10.9-10.3c4.8-3.9,10.7-7.4,16.1-9.8c5.4-2.4,10.2-3.6,12.3-4.3
							c1.1-0.4,1.5-0.5,1.1-0.6C324.3,253.3,323,253.4,320.6,253.8z"/>
					</g>
				</g>
			</g>
		</g>
	</g>
	<g>
		<g>
			<g>
				<g>
					<path fill-rule="evenodd" clip-rule="evenodd" fill="#1D1D1B" d="M568.3,342.2c0.4-4.1,0.7-8.2,1-12.3l0.2-3.1l0.1-3
						c0.1-1,0-2,0-3c0-1,0-2-0.1-3c-0.2-4-0.8-8-1.7-12c-1-4-2.3-7.9-4-11.6c-3.4-7.5-8.2-14.6-14.2-20.5
						c-6-5.9-13.2-10.8-21.2-13.9c-4-1.6-8.1-2.8-12.4-3.5c-1.1-0.2-2.1-0.3-3.2-0.5c-1.1-0.2-2.1-0.2-3.2-0.3
						c-1.1-0.1-2.2-0.1-3.2-0.1l-1.6,0l-1.6,0c-8.7,0.1-17.5,0.2-26.3,0.3c-17.6,0.3-35.2,0.7-52.9,1.1c-17.7,0.4-35.3,0.8-52.9,1.2
						c-8.8,0.1-17.6,0.3-26.3,0.4c-2.2,0-4.4,0-6.6,0.1l-3.3,0l-3.1,0.1c-4.1,0.2-8.2,0.8-12.1,1.9c-7.9,2-15.4,5.6-22,10.3
						c-6.6,4.8-12.3,10.7-16.9,17.4c-4.6,6.7-8.1,14.2-10.3,22c-1.1,3.9-2,7.9-2.5,11.9c-0.5,4.1-0.7,8.2-1.1,12.3
						c-0.6-1.6-1-3.8-1.3-6.4c0-0.3-0.1-0.7-0.1-1l0-0.3l0-0.3l0-0.5c0-0.7-0.1-1.4-0.1-2.2c-0.1-1.5,0-3.2,0.1-4.9
						c0.3-3.4,0.9-7,1.8-10.8c1-3.8,2.3-7.6,4-11.3c1.7-3.7,3.7-7.4,5.9-10.8c2.2-3.4,4.7-6.5,7.2-9.4c1.2-1.4,2.5-2.7,3.7-4
						c1.3-1.2,2.4-2.5,3.6-3.6c2.3-2.3,4.5-4.2,6.3-6c0-0.4-1.5,0.4-3.6,1.8c-2.1,1.4-4.9,3.6-7.4,5.9c-5.1,4.7-9.2,10.2-9.7,9.3
						c1.9-3.9,5.4-8.8,10.3-13.5c2.5-2.3,5.3-4.6,8.3-6.6c3.1-2,6.4-3.8,9.8-5.3c3.4-1.5,6.9-2.6,10.3-3.4c1.7-0.3,3.4-0.7,5-0.9
						c0.8-0.1,1.6-0.2,2.4-0.3c0.8,0,1.6-0.1,2.3-0.1c3.1-0.2,5.9,0,8.2,0.3c2.3,0.3,4.1,0.7,5.6,1.1c53.5-1.7,109.4-6.8,160.6-5.2
						c1.6,0.1,2.9,0.3,4,0.4c0.1,0,0.3,0,0.4,0.1l0.1,0l0,0l0,0l0,0l0.2,0l0,0l0.2,0c0.2,0,0.5,0.1,0.7,0.1c0.4,0.1,0.8,0.2,1.1,0.2
						c1.2,0.3,1.7,0.6,1.9,0.9c0.4,0.6-0.4,1,1.7,1.7l1.7,0l1.6,0.1c1.1,0.1,2.1,0.2,3.2,0.3c1.1,0.2,2.1,0.3,3.2,0.5
						c1.1,0.2,2.1,0.4,3.2,0.7c4.2,1,8.4,2.5,12.4,4.3c8,3.7,15.2,9,21,15.2c5.8,6.2,10.3,13.2,13.3,20.3c3.1,7.1,4.7,14.2,5.4,20.6
						c0.3,3.2,0.4,6.3,0.3,9.1c0,0.7-0.1,1.4-0.1,2.1c-0.1,0.7-0.1,1.4-0.2,2c-0.1,0.7-0.1,1.3-0.2,1.9c-0.1,0.6-0.2,1.2-0.3,1.8
						c-0.7,4.6-1.4,8.5-2.2,11.2C571.5,345.3,569.8,346.6,568.3,342.2z"/>
					<path fill-rule="evenodd" clip-rule="evenodd" fill="#1D1D1B" d="M278.9,298.2c-0.7,2-0.1,1.5,0.5,0.8c0.6-0.7,1.5-1.5,1.1-0.3
						c-3.3,6.5-6.2,13.8-8.1,21.5c-0.2,0.9-0.4,1.9-0.6,2.8c-0.2,1-0.3,2.1-0.5,3.1l-0.1,0.4l0,0.2l0,0l0,0c0,0.1,0-0.1,0-0.1l0,0
						l0,0.1l-0.1,0.8c-0.1,0.5-0.2,1-0.2,1.5c-0.2,1-0.3,2-0.5,3.1c-0.6,4-1.2,8-1.8,11.6c-1.4-0.1-2.7-0.2-4-0.3
						c0.4-1.3,0.7-2.5,1.1-3.7c-0.8,0.8-1-1.8-0.7-6.1c0.2-2.1,0.5-4.7,1-7.4c0.1-0.7,0.3-1.4,0.4-2.1c0.2-0.7,0.3-1.5,0.5-2.2
						c0.3-1.5,0.9-3,1.3-4.5c0.9-1.2-0.1,6.3,1.1,3.8c1.4-4.8,2.6-9.2,3.9-13.4c1.3-4.2,2.7-8.1,4.7-11.6c0.7-0.9,1.3-1.7,1.9-2.4
						c0.6-0.7,1.1-1.3,1.6-1.7c0.9-0.9,1.6-1.4,1.9-1.5c-4.7,7.7-8.3,16.2-10.6,25.2c-0.6,2.2-1.1,4.5-1.5,6.8
						c-0.4,2.3-0.8,4.7-1.3,7c-0.9,4.7-1.8,9.4-2.7,14.2l-1-0.1c0.3-4.4,0.6-8.8,1-13.2c0.3-4.4,0.7-8.8,1.7-13
						c1.8-8.5,5.1-16.5,9.5-23.6c4.5-7.1,10.1-13.3,16.4-18.2c6.3-5,13.3-8.8,20.6-11.3c-0.2,1.4-7.2,4.8-14.9,10.9
						c-3.9,3-7.8,6.7-11.5,10.7C285.1,290,281.8,294.3,278.9,298.2z"/>
					<g>
						<g>
							<path fill="none" d="M289.7,275.1c-8.6,7.7-15.6,18-19.6,30c-1,3-1.8,6.1-2.4,9.2c-0.3,1.6-0.5,3.2-0.8,4.8
								c-0.2,1.6-0.4,3.2-0.4,4.9c-0.2,3.3-0.2,6.6-0.3,9.9c-0.1,3.3-0.1,6.6-0.2,10l1,0.1c1.1-7.3,2.2-14.6,3.3-22.1
								c1.3-7.3,3.4-14.6,6.7-21.4c3.3-6.8,7.6-13.2,12.9-18.8c5.3-5.5,11.6-10.2,18.6-13.5c7-3.3,14.7-5.3,22.4-5.7
								c0.9-0.1,2-0.1,3-0.1l0.7,0l0.7,0l1.5,0l6,0c4,0,8,0,12,0c16-0.1,32.1-0.1,48.1-0.2c32.1-0.2,63.9-0.4,94.7-0.6
								c3.8,0,7.7-0.1,11.4,0.1c3.8,0.2,7.5,0.8,11.1,1.7c7.2,1.9,14.1,5,20.1,9.2c12.1,8.4,20.7,20.6,25.3,33.6
								c2.1,6,2.8,10.1,3.3,12.5c0.4,2.4,0.4,2.9,0.5,3.1c-0.1-0.4-0.6-5.1-1.9-9.7c-1.2-4.6-3-9-3.2-9.4c0-0.1,0,0.1,0.2,0.5
								c0.2,0.5,0.5,1.3,0.9,2.4c0.8,2.4,2.2,6.3,3.4,12.5"/>
							<path fill="#1D1D1B" d="M305,262.6c-7,3.3-13.5,7.9-19.1,13.5c-5.6,5.6-10.2,12.3-13.8,19.6c-3.5,7.3-5.8,15.3-6.8,23.5
								l-0.3,3.1c-0.1,1-0.1,2-0.2,3.1c-0.1,2.1-0.1,4.1-0.1,6.1c-0.1,4.1-0.1,8.2-0.2,12.2l3.9,0.2c0.6-3.8,1.1-7.6,1.7-11.4
								c0.6-3.8,1.1-7.7,1.7-11.4c1.3-7.4,3.6-14.7,7-21.4c3.3-6.8,7.7-13,13.1-18.3c5.3-5.3,11.6-9.7,18.5-12.8
								c6.9-3.1,14.4-4.8,21.9-5.1l2.9-0.1l3,0l5.9,0c4,0,7.9,0,11.9,0c15.8-0.1,31.7-0.2,47.6-0.2c31.7-0.2,63.5-0.4,94.9-0.6
								l5.9,0c1.9,0,3.8,0,5.7,0.2c3.8,0.3,7.6,1,11.2,2c7.3,2,14.2,5.5,20.3,10.1c12.2,9.2,20.8,22.6,24.6,37.1
								c1.2,3.2,2.3,6.5,3.1,9.8l1.1,5.1c0.4,1.7,0.8,3.4,1.3,5c-0.3-1.6-0.5-3.3-0.7-4.9l-0.5-4.9c-0.4-3.4-1.1-6.7-1.9-9.9
								c-2.5-6.6-5.9-12.7-10-18.1c2.7,4.5,4.9,9.4,6.5,14.4c1.2,3.5,2.6,8.5,3.4,13.6c0.2,1.3,0.4,2.6,0.6,3.9
								c0.2,1.3,0.4,2.6,0.7,3.7c0.5,2.4,1,4.6,1.5,6.4c0.9,3.6,1.6,5.7,1.7,4.9c0.1-0.8-0.5-4.6-1.7-12.7c-0.4-2.6-0.5-5.3-0.9-8.1
								c-0.4-2.7-1-5.4-1.6-8c-0.9-3.6-2.7-8.6-5.2-13.3c-2.5-4.7-5.5-9-8-11.8c-2.5-2.8-4.2-4.2-3.9-3.5c0.2,0.4,0.9,1.2,2.1,2.9
								c1.2,1.6,3,4.1,5.1,7.6c3.3,5.6,5.9,11.7,7.6,18c0.5,1.8,1,3.9,1.5,6.3c0.3,1.2,0.4,2.4,0.7,3.6c0.2,1.2,0.4,2.6,0.6,3.8
								c0.4,2.7,0.9,5.2,1.4,7.6c0.5,2.4,1.1,4.6,1.5,6.4c0.9,3.6,1.6,5.7,1.7,4.9c0.1-0.8-0.5-4.6-1.9-12.7c-0.3-2-0.6-4-0.8-6
								c-0.2-2-0.4-4-0.7-6.1c-0.6-4.1-1.6-8.1-2.9-12c-2.6-7.8-6.4-15.3-11.5-21.9c-5.1-6.6-11.4-12.3-18.6-16.6
								c-7.2-4.3-15.2-7.2-23.6-8.3c-4.2-0.6-8.4-0.6-12.5-0.5c-4.2,0-8.4,0.1-12.5,0.1c-8.4,0.1-16.7,0.1-25.1,0.2
								c-16.8,0.1-33.6,0.2-50.4,0.3c-16.8,0.1-33.6,0.1-50.3,0.2c-8.4,0-16.7,0-25,0l-3.1,0l-3.1,0.1l-3.1,0.2l-3.1,0.4
								c-4.1,0.6-8.1,1.6-12,3c-7.8,2.8-14.9,7.2-21,12.7c-6.1,5.5-11.1,12.1-15,19.3c-3.9,7.2-6.5,15-8.1,22.9c-0.8,4-1.3,8-1.9,12
								c-0.6,4-1.2,7.9-1.9,11.9c0.6,0,1.3,0.1,1.9,0.1c0.1-4.7,0.2-9.4,0.4-14.1c0-1.2,0.1-2.4,0.1-3.5c0.1-1.2,0.1-2.3,0.2-3.5
								l0.4-3.4l0.5-3.4c1.6-8.9,4.9-17.4,9.6-24.9c1.5-2.5,4.1-6.6,7.6-10.9c3.4-4.2,7.8-8.5,11.9-11.7c4.1-3.2,7.8-5.4,9.5-6.5
								C309.3,261,308.9,260.9,305,262.6z"/>
						</g>
					</g>
				</g>
			</g>
		</g>
	</g>
	<g>
		<g>
			<g>
				<g>
					<path fill-rule="evenodd" clip-rule="evenodd" fill="#1D1D1B" d="M507.1,470.5c7.9,0.5,16.2-0.8,24-3.9
						c7.8-3.1,15.1-7.9,21.2-14.1c6.2-6.1,11.2-13.6,14.6-21.8c3.5-8.2,5.3-17.1,5.5-26.1l1.2,0.1c-0.9,5.4-2.4,10.7-4.2,15.8
						c-1.8,5.2-4,10.2-6.7,15c-2.7,4.8-5.8,9.4-9.5,13.6c-3.7,4.2-7.9,8-12.6,11.1c-4.7,3.1-9.8,5.7-15.2,7.4
						c-1.4,0.4-2.7,0.8-4.1,1.2c-1.4,0.4-2.8,0.6-4.1,0.9c-1.4,0.3-2.8,0.5-4.2,0.7c-1.4,0.2-2.9,0.4-4.2,0.4l-2.1,0.1l-1,0.1
						l-0.5,0l-0.3,0l-0.4,0l-4.1,0.1l-8.2,0.2c-5.5,0.1-10.9,0.2-16.4,0.3c-43.6,0.7-86.6,0.6-127.4-2.7c11.4-4.3,54,1,70.9-2.5
						c0.6-1.2-23.5-0.1-22.6-1.7c14.2-2.6,49.8-2.2,59.8,0.9c11.8-0.4,23.7-0.9,35.6-1.5c3-0.2,6-0.3,9-0.5l2.2-0.1l1.1-0.1l0.1,0
						l0,0c-0.4,0-0.1,0-0.2,0l0.1,0l0.3,0l0.6,0l4.5-0.4l3.9-0.7c1.3-0.2,2.7-0.6,4-0.9c2.6-0.7,5.2-1.5,7.7-2.6
						c4.9-2.1,9.5-4.8,13.5-8.1c4.1-3.3,7.6-7.2,10.7-11.4c3.1-4.2,5.8-8.8,8.1-13.5c2.3-4.7,4.2-9.7,5.8-14.6c1.9-5,2.5-6.1,3-6.3
						c0.5-0.2,0.9,0.4,1.6-0.9l0,0l9.3,0.8c0.1,3.7-0.1,7.4-0.5,11.1c-0.5,3.7-1.3,7.5-2.4,11.1c-1.1,3.6-2.5,7.2-4.1,10.6
						c-1.7,3.4-3.6,6.6-5.7,9.7c-2.1,3-4.5,5.8-6.9,8.4c-2.5,2.6-5.1,4.9-7.7,6.9c-5.4,4.1-11,7.1-16.3,9.1c-5.3,2-10.3,3-14.6,3.3
						c-4.2,0.3-7.7,0.1-10.2-0.4C504.4,473.4,503.5,471.9,507.1,470.5z"/>
					<path fill-rule="evenodd" clip-rule="evenodd" fill="#1D1D1B" d="M383.6,474c-4.1,0.3,2.7,1.1,0.2,1.5
						c-15.6-0.6-33.4-3.6-46.8-5.7c0.4,0.3,0,0.6-0.9,0.8c-0.5,0.1-1.1,0.2-1.8,0.3c-0.8,0.1-1.6,0.1-2.6,0.1
						c-3.9,0.1-9.5-0.7-14.6-2.9c-1-0.9,5.5,0.4,3.4-0.8c-4.2-1.4-8-2.8-11.6-4.2c-3.6-1.4-6.9-3-9.8-5c-0.8-0.7-1.4-1.3-2-1.9
						c-0.5-0.6-1-1.1-1.4-1.5c-0.8-0.9-1.1-1.4-1.2-1.8c9.1,6.7,19.6,11.6,31.1,13.6c1.4,0.2,2.9,0.4,4.3,0.6
						c1.5,0.1,2.9,0.3,4.4,0.4c3,0.2,6,0.4,9,0.6c6,0.4,12,0.9,18,1.4c24.1,2,48.2,4.3,71.5,4.5C431.6,476.4,401.9,477.7,383.6,474z
						"/>
					<g>
						<g>
							<path fill="none" d="M407.1,470.1c-11.9-0.5-24.3-1-37.2-1.3c-6.4-0.2-13-0.3-19.7-0.5c-3.3-0.1-6.7-0.1-10.1-0.2
								c-1.7,0-3.4-0.1-5.1-0.1c-1.7-0.1-3.4-0.1-5.1-0.2c-6.8-0.5-13.5-2.1-19.9-4.7c-3.2-1.4-6.3-2.9-9.2-4.8
								c-2.9-1.9-5.8-3.9-8.4-6.3c-5.3-4.6-9.9-10.1-13.8-16c-3.9-5.9-7.3-12.4-9.7-19.1l-2.4,0.6c2,9.9,5.9,19.4,11.6,27.8l0.5,0.8
								l0.6,0.8l1.2,1.5c0.8,1,1.5,2,2.4,3l2.6,2.8c0.4,0.5,0.8,1,1.3,1.4l1.4,1.3l2.8,2.6l3,2.4l1.5,1.2c0.5,0.4,1.1,0.7,1.6,1.1
								l3.2,2.1c4.4,2.5,8.9,4.8,13.8,6.3c4.8,1.7,9.8,2.5,14.8,3.1l3.7,0.2l1.9,0.1c0.7,0,1.3,0,1.9,0c2.5,0,4.9,0,7.4,0
								c4.9,0,9.9-0.1,14.8-0.1c39.2-0.3,77.1-0.5,111.6-0.5c44.7,0-33.7,0,11,0"/>
							<path fill="#1D1D1B" d="M424.9,469.1c-28.7-1.2-58.3-1.9-88.4-2.4c-1.9,0-3.7-0.1-5.6-0.2c-0.9,0-1.8-0.2-2.7-0.2
								c-0.9-0.1-1.8-0.2-2.7-0.3c-1.8-0.3-3.6-0.6-5.4-1c-0.9-0.2-1.8-0.4-2.7-0.7l-2.6-0.8c-3.5-1.2-6.9-2.6-10.1-4.4
								c-3.2-1.8-6.3-3.9-9.2-6.2c-5.7-4.7-10.8-10.3-15-16.5c-2.1-3.1-4-6.3-5.8-9.7c-0.9-1.7-1.7-3.4-2.4-5.1
								c-0.7-1.7-1.5-3.5-2-5.2l-4.6,1.2c2,10,6,19.6,11.7,28.1c0.7,1.1,1.5,2.1,2.3,3.1c0.8,1,1.5,2,2.4,3l2.6,2.8l1.3,1.4l1.4,1.3
								l2.8,2.6c1,0.8,2,1.6,3,2.4c2,1.7,4.2,3,6.3,4.4c0.5,0.4,1.1,0.7,1.7,1l1.7,0.9l1.7,0.9c0.6,0.3,1.1,0.6,1.7,0.8
								c2.4,1,4.7,2.1,7.1,2.8c1.2,0.4,2.4,0.8,3.7,1.2l3.7,0.9l1.9,0.4l1.9,0.3l3.9,0.5c1.3,0.1,2.5,0.1,3.7,0.2l1.9,0.1l0.5,0
								l0.2,0l0.3,0l0.9,0l7.4-0.1c5,0,9.9-0.1,14.8-0.1c39.6-0.3,78.8-0.6,117.1-0.5c6.1-0.7,12.2-1.3,18.2-2c-5.9,0-11.7,0-17.6,0
								c-6.1,0.7-12.2,1.3-18.2,2c4.8,0,9.5,0,14.3,0c13.2,0,47.5-2,18.2-2c-4.8,0-9.5,0-14.3,0c-13,0-47.6,2-18.2,2
								c5.9,0,11.7,0,17.6,0c13.2,0,47.5-2,18.2-2c-41.2,0-83.6,0.3-126.3,0.6c-10.7,0.1-21.4,0.1-32.1,0.2c-1.3,0-2.7-0.1-4-0.1
								l-2-0.1c-0.7,0-1.3-0.2-2-0.2l-4-0.5c-1.3-0.3-2.6-0.6-3.9-0.9l-2-0.5c-0.6-0.2-1.3-0.4-1.9-0.6l-3.8-1.3l-3.7-1.6
								c-0.6-0.3-1.2-0.5-1.8-0.8l-1.8-1c-4.8-2.4-9.1-5.6-13.2-9.1c-2-1.8-4-3.6-5.7-5.6l-1.3-1.5c-0.5-0.5-0.9-1-1.3-1.5l-2.4-3.2
								l-0.6-0.8c-0.2-0.3-0.4-0.6-0.5-0.8l-1.1-1.7l-1.1-1.7c-0.4-0.6-0.7-1.1-1-1.7c-1.2-2.4-2.6-4.7-3.5-7.2
								c-2.2-4.9-3.6-10-4.7-15.2l0.7-0.2c2,5.8,4.8,11.4,8,16.7c3.2,5.3,6.9,10.2,11.2,14.6c2.1,2.2,4.4,4.3,6.7,6.2
								c2.4,1.9,4.9,3.7,7.5,5.3c2.6,1.6,5.3,2.9,8.1,4.2c1.4,0.5,2.8,1.1,4.3,1.6l2.2,0.7l1.1,0.3l1.1,0.3c1.5,0.4,2.9,0.8,4.4,1
								c1.5,0.3,3,0.6,4.5,0.7c1.5,0.2,3,0.4,4.5,0.4c1.5,0.1,3,0.2,4.5,0.2c6,0.2,11.9,0.3,17.9,0.5c11.8,0.3,23.6,0.7,35.1,1.2
								C400,471.4,439.9,469.8,424.9,469.1z"/>
						</g>
					</g>
				</g>
			</g>
		</g>
	</g>
</g>
<g>
	<g>
		<g>
			<path fill-rule="evenodd" clip-rule="evenodd" fill="#1D1D1B" d="M423.6,429.1c4.4,0.2,9.2-1.7,12.5-5.2c1.7-1.8,3-3.9,4-6.2
				c0.9-2.3,1.4-4.8,1.4-7.4l0,0.1c-1.7-12.2-3.9-24.7-6.2-37.2l-0.1-0.4l0.4-0.2c3.6-1.7,6.8-4.1,9.5-6.9c2.7-2.8,4.9-6.1,6.5-9.7
				c1.6-3.5,2.6-7.3,3-11.2c0.1-0.9,0.2-1.9,0.2-2.9l0-1.5c0-0.4-0.1-0.9-0.1-1.4l-0.1-1.4c0-0.5-0.1-1-0.1-1.4l-0.4-2.8
				c-1.6-7.5-5.4-14.3-10.9-19.4c-5.5-5-12.5-8.3-20-9c0.6-0.2,1.5-0.3,2.5-0.4c1,0,2.2,0.1,3.6,0.3c2.6,0.6,5.6,1.5,8.4,3.2
				l1.1,0.6l1,0.7c0.7,0.5,1.3,0.9,2,1.4c1.2,1,2.5,1.9,3.5,3c0.5,0.5,1.1,1,1.6,1.5c0.5,0.5,0.9,1,1.4,1.4c0.9,0.9,1.6,1.8,2.4,2.4
				c0.2,0-0.2-0.6-0.7-1.4c-0.1-0.2-0.3-0.4-0.5-0.7c-0.2-0.2-0.4-0.5-0.6-0.7c-0.4-0.5-0.8-1-1.3-1.5c-0.9-1-1.9-1.9-2.6-2.7
				c-0.7-0.7-1.1-1.1-0.9-1.2c0.4,0.2,0.8,0.4,1.2,0.7c0.4,0.3,0.8,0.6,1.3,1c0.4,0.4,0.9,0.7,1.4,1.1c0.4,0.4,0.9,0.9,1.3,1.4
				c0.4,0.5,0.9,1,1.3,1.5c0.4,0.6,0.8,1.1,1.2,1.7c0.9,1.1,1.5,2.4,2.2,3.6c0.7,1.3,1.2,2.6,1.7,3.8c0.4,1.3,0.7,2.5,1,3.7
				c0.2,1.2,0.3,2.2,0.4,3.1c0.1,0.9,0,1.7-0.1,2.3c0.2,1,0.4,1.9,0.4,2.9c0.1,1,0.2,1.9,0.2,3c0,1,0,1.9,0,2.9
				c-0.1,1-0.1,2.1-0.2,3.1c-0.5,4-1.6,8-3.3,11.8c-3.4,7.5-9.5,14-17.1,17.6c0.6-1.2,1.3-2.4,1.9-3.6c1.1,5.7,2,11.2,2.7,16.7
				c0.4,5.1-0.5,2.5-0.6,4.1c1.2,5.4,2.2,11.1,3,16.5l0,0.2l0,0.2l0,0.5l0,0.3l0,0.2l-0.1,0.9c0,0.3,0,0.6-0.1,0.9l-0.2,1
				c-0.1,0.7-0.2,1.4-0.4,2c-0.2,0.6-0.3,1.3-0.6,1.8c-0.8,2.4-2.1,4.5-3.6,6.3c-2.9,3.6-6.6,5.6-9.6,6.3c-0.8,0.2-1.5,0.3-2.1,0.4
				c-0.7,0.1-1.3,0.1-1.8,0.1c-0.5,0-1-0.1-1.4-0.1c-0.4-0.1-0.8-0.2-1-0.3C422.4,430.2,422.4,429.7,423.6,429.1z"/>
			<path fill-rule="evenodd" clip-rule="evenodd" fill="#1D1D1B" d="M437.1,311c-1.6-0.6,0.7,0.9-0.2,0.6c-2.7-1.7-5.8-3.2-9-4.2
				l-1.2-0.4c-0.4-0.1-0.8-0.3-1.2-0.3c-0.9-0.2-1.7-0.4-2.6-0.5l-0.2,0l-0.1,0l0,0l0,0c0,0-0.1,0,0.1,0l0,0l0,0l-0.3,0l-0.6-0.1
				c-0.4,0-0.8-0.1-1.2-0.1c-0.4,0-0.8-0.1-1.2-0.1c-0.4,0-0.8,0-1.1,0c0.4,0.2-0.6,0.6-2.1,0.9c-0.8,0.3-1.7,0.5-2.8,0.7
				c-1,0.3-2.1,0.6-3.3,0.9c-0.6-0.1,2.1-1.2,1-1.1c-0.5,0.1-0.9,0.2-1.4,0.4c-0.4,0.2-0.9,0.4-1.3,0.6c-0.4,0.2-0.8,0.4-1.2,0.6
				l-0.6,0.3l-0.5,0.4c-0.7,0.5-1.4,1-2.1,1.4c-0.6,0.5-1.3,1-1.9,1.5c-0.8,0.4-1.4,0.9-1.8,1.1c-0.4,0.3-0.7,0.4-0.9,0.4
				c3.6-3.8,8.4-6.8,13.6-8.1c5.2-1.4,10.8-1.2,15.9,0.2c5.1,1.4,9.6,4.3,13.3,7.8c3.7,3.5,6.4,7.7,8.4,12.1c-0.1,0-0.4-0.2-0.6-0.5
				c-0.2-0.3-0.6-0.8-1-1.3c-0.4-0.5-0.8-1.2-1.3-1.9c-0.5-0.7-1.1-1.4-1.7-2.2c-0.7-0.7-1.3-1.5-2-2.4c-0.8-0.7-1.5-1.6-2.3-2.3
				c-0.8-0.7-1.5-1.5-2.4-2.2C438.5,312.4,437.8,311.6,437.1,311z"/>
			<g>
				<g>
					<path fill="none" d="M446,315.7c-2.8-3.2-6.3-6-10.5-8c-4.1-2-8.9-3.1-13.8-3c-4.9,0-9.9,1.3-14.5,3.6l-0.9,0.4l-0.8,0.5
						l-1.6,1c-1.1,0.7-2.1,1.6-3.1,2.4l-1.4,1.3c-0.5,0.5-1,0.9-1.4,1.4c-0.8,1-1.8,2-2.5,3.1c-3.1,4.3-5.3,9.3-6.4,14.6
						c-0.2,1.3-0.4,2.7-0.6,4l-0.1,2l0,1l0,0.3c0,0.1,0,0.2,0,0.3l0,0.5c0,2.7,0.4,5.4,1,8.1c0.6,2.7,1.6,5.2,2.8,7.6
						c0.6,1.2,1.3,2.4,2,3.6c0.8,1.1,1.5,2.2,2.4,3.3c1.7,2.1,3.6,4,5.8,5.6c2.1,1.6,4.5,3,6.9,4.1l-0.2-0.4
						c-2,12.8-3.9,25.4-5.8,37.2l0,0l0,0c-0.1,5.5,2,10.9,5.5,14.7c0.9,0.9,1.6,1.6,2.3,2.1c0.7,0.5,1.2,0.9,1.6,1.2
						c0.8,0.6,1.2,0.7,1.1,0.7c-0.1,0-0.5-0.3-1.1-0.7c-0.6-0.4-1.4-1-2.1-1.5c-1.4-1.2-2.6-2.7-2.7-2.8c0.1,0.1,0.2,0.2,0.8,1
						c0.7,0.7,1.8,2,3.9,3.3"/>
					<path fill="#1D1D1B" d="M451,321.7c-2.4-4.5-5.8-8.5-10.1-11.6c-4.3-3.1-9.3-5.1-14.8-5.8c-5.3-0.6-11,0.1-16.1,2.2
						c-5.2,2-9.7,5.5-13.4,9.8c-3.7,4.3-6.2,9.5-7.5,15c-0.2,0.7-0.4,1.4-0.5,2.1l-0.3,2.1c-0.3,1.4-0.2,2.8-0.3,4.2
						c0,2.9,0.2,5.7,0.8,8.5c0.6,2.8,1.5,5.5,2.7,8.1c1.2,2.6,2.7,5,4.4,7.2c3.5,4.5,8.1,8,13.3,10.4l-0.5-0.9
						c-1.9,12.5-3.9,25-5.8,37.2l0,0l0,0.1c-0.2,6.3,2.6,12.6,7.3,16.7c2.3,1.6,4.9,2.7,7.6,3.1c-2.5-0.7-4.8-2-6.7-3.6
						c-2.2-1.5-4.2-3.5-5.7-5.8c1,1.9,2.3,3.7,3.8,5.3c1,1.1,2.8,2.4,4.7,3.3c1.9,1,3.9,1.4,5.4,1.6c0.7,0.1,1.3,0.1,1.7,0.1
						c0.4,0,0.5-0.1,0.4-0.1c-0.1,0-0.2,0-0.5-0.1c-0.2-0.1-0.5-0.1-0.9-0.2c-0.4-0.1-0.9-0.1-1.4-0.3c-0.6-0.2-1.2-0.3-2-0.6
						c-1.9-0.7-3.8-1.8-5.4-3.1c-1.1-0.9-2.6-2.3-3.8-4c-1.2-1.7-2.2-3.5-2.7-4.9c-0.3-0.7-0.5-1.2-0.6-1.6
						c-0.1-0.3-0.2-0.5-0.2-0.3c0,0.3,0.1,1.9,1.6,4.9c1.2,2.4,2.9,4.6,4.9,6.3c1.2,1,2.9,2.2,4.9,3c2,0.8,4.1,1.1,5.5,1.2
						c1.5,0,2.3-0.1,2-0.2c-0.3-0.2-1.8,0-4.9-0.9c-4.1-1.2-7.8-3.9-10.2-7.4c-1.2-1.8-2.2-3.8-2.9-5.8c-0.6-2.1-0.9-4.3-0.9-6.5
						l0,0c1.9-12.3,3.8-24.8,5.7-37.2l0,0c-2.2-1-4.3-2.2-6.3-3.7c-1.9-1.5-3.8-3.1-5.4-4.9c-3.2-3.7-5.7-8-7.2-12.7
						c-3-9.3-2.2-19.7,2.3-28.3c4.4-8.6,12.4-15.1,21.4-17.3c4.5-1.1,9.1-1.2,13.6-0.4c4.4,0.9,8.5,2.7,12,5.2
						c0.5,0.3,1.1,0.7,1.8,1.3c0.4,0.3,0.7,0.6,1.1,0.9c0.2,0.2,0.4,0.3,0.6,0.5c0.2,0.2,0.4,0.4,0.6,0.5c1.6,1.4,3.3,3.2,4.6,4.8
						c0.6,0.8,1.3,1.5,1.7,2.2c0.4,0.7,0.8,1.2,1,1.5C451.8,323.4,451.8,323.2,451,321.7z"/>
				</g>
			</g>
		</g>
	</g>
</g>
<g>
	<g>
		<g>
			<path fill-rule="evenodd" clip-rule="evenodd" fill="#1D1D1B" d="M452.1,341.4c-0.7,6.3-3.1,12.4-7.1,17.4
				c-4,4.9-9.5,8.7-15.7,10.3l0.2-0.3c2.2,13.8,4.9,27.8,7.4,41.8l0,0.1l0,0.1c0.1,3.8-1.3,7.8-3.9,10.7c-1.3,1.5-2.9,2.7-4.7,3.5
				c-0.5,0.2-0.9,0.4-1.4,0.5c-0.5,0.1-0.9,0.3-1.4,0.4c-0.5,0.1-1,0.2-1.5,0.2l-0.7,0l-0.3,0l-0.2,0l-0.2,0c-4,0-7.9-1.8-10.4-4.8
				c-2.6-2.9-4-6.8-3.9-10.6l0-0.1l0-0.1c1.4-7.6,2.9-15.1,4.7-22.3c0.8,3.7-2,14.7-3.1,22.6l0-0.1c0.1,2.1,0.7,3.9,1.5,5.1
				c0.2,0-0.1-0.6-0.3-1.6c-0.2-1-0.4-2.3-0.4-3.5l0,0.2c0.3-1.9,0.7-3.6,0.9-3.4c0,1,0,2.2-0.1,3.5c0-0.1,0-0.2,0-0.3
				c0.2,2.9,1.5,6.4,3.8,8.8c1.1,1.2,2.4,2.1,3.6,2.7c1.2,0.6,2.3,1,3,1.3c0.4,0,0.9,0,1.2,0c0.4-0.1,1-0.1,1.3-0.2
				c0.8-0.1,1.6-0.4,2.3-0.7c1.5-0.7,2.9-1.7,4-2.9c2.2-2.5,3.3-5.8,3.1-9l0,0.4c-2.4-11.3-4.8-22.6-6.2-33.4
				c-0.3-4.6,0.4-2.2,0.6-3.6c-0.4-1.6-0.7-3.3-1-4.9l-0.3-1.8l1.9-0.6c4.6-1.4,8.9-3.9,12.1-7.2c1.6-1.6,3.1-3.3,4.2-5.1
				c0.6-0.8,1.1-1.8,1.6-2.6c0.4-0.9,0.9-1.7,1.2-2.5c1.5-3.3,2.2-6.1,2.7-7.7C451.1,340.2,451.7,339.8,452.1,341.4z"/>
			<path fill-rule="evenodd" clip-rule="evenodd" fill="#1D1D1B" d="M408.6,401.7c0.1-1.6-0.6,1-0.6,0c1.2-6.1,3.6-12.9,5.2-18.1
				c-0.6,0.5-0.3-3.7,1.1-7.8c0.3-0.4,0,2.2,0.4,1.3c0.9-3,1-5.8,1.4-8.3l0,0c-0.3-0.1-0.6-0.2-0.8-0.3c-1.5-0.7-2.2-1.2-2.3-1.4
				c1.1,0.4,2.2,0.7,3.4,1l0.6,0.2l-0.1,0.6c-2,13.7-6.2,27.7-9.3,41.5l0,0l0,0.3c-0.2,4.1,1.2,8.3,4.1,11.4c-0.3,0.1-1.7-0.9-3-2.9
				c-1.3-2-2.4-5.1-2.3-8.5l0-0.3l0-0.2C406.9,407.3,407.7,404.2,408.6,401.7z"/>
			<g>
				<g>
					<path fill="none" d="M408.8,411.4c0-0.2,0-0.4,0-0.6l0-0.1l0,0c2.6-12.6,5.2-26.8,7.7-41.8l0.1-0.3l-0.4-0.1
						c-2.2-0.6-4.4-1.5-6.5-2.7c-2-1.2-3.9-2.6-5.6-4.3c-3.4-3.3-6-7.5-7.4-12.1c-0.8-2.3-1.1-4.7-1.3-7.1l-0.1-1.8l0.1-1.8
						c0-1.2,0.2-2.4,0.4-3.6c0.8-4.8,2.9-9.3,5.8-13.2c5.9-7.6,15.8-12,25.1-10.2c4.6,0.6,8.9,2.6,12.4,5.3c3.5,2.8,6.3,6.2,8.2,10
						c0.4,1,0.8,1.9,1.1,2.6c0.2,0.7,0.4,1.3,0.6,1.7c0.3,0.8,0.4,1.1,0.3,1.1c0-0.1-0.1-0.5-0.3-1.1c-0.2-0.6-0.4-1.4-0.8-2.2
						c-0.3-0.8-0.7-1.5-0.9-2.1c-0.3-0.6-0.5-1-0.6-1c-0.1-0.1,0.8,1,2.2,5.2"/>
					<path fill="#1D1D1B" d="M411.1,418.2c-1.2-2.3-1.8-4.9-1.7-7.4l0,0c2.7-13.5,5.2-27.5,7.6-41.8l0.1-0.8l-0.8-0.2
						c-2.2-0.6-4.4-1.5-6.4-2.7c-2-1.2-3.9-2.6-5.5-4.2c-3.3-3.3-5.8-7.4-7.2-11.9c-0.2-0.6-0.4-1.1-0.5-1.7l-0.4-1.7
						c-0.1-0.6-0.2-1.2-0.3-1.7c-0.1-0.6-0.2-1.1-0.2-1.8l-0.1-1.8l0.1-1.7c0-1.2,0.2-2.4,0.4-3.5c0.8-4.7,2.8-9.1,5.6-12.9
						c5.8-7.5,15.6-12,25-10.1c2.3,0.4,4.6,1,6.7,2l0.8,0.4l0.8,0.4l1.5,0.9c0.9,0.7,2,1.3,2.8,2.1c1.8,1.4,3.4,3.2,4.8,5.1
						c0.6,1,1.3,1.9,1.9,2.9c0.3,0.5,0.6,1,0.8,1.5l0.7,1.6c0.3,0.5,0.6,1.1,0.8,1.6c0.2,0.6,0.5,1.1,0.7,1.7
						c0.4,1.1,0.9,2.3,1.1,3.5c-0.1-1.2-0.5-2.3-0.7-3.5c-0.1-0.6-0.4-1.1-0.5-1.7c-0.2-0.6-0.3-1.1-0.6-1.7
						c-0.6-1.1-1.2-2.1-1.9-3.1c-0.7-1-1.5-1.9-2.3-2.8c1.1,1.5,2,3.1,2.8,4.8c0.2,0.6,0.6,1.3,0.9,2.1c0.3,0.8,0.6,1.6,0.9,2.5
						c0.2,0.9,0.5,1.7,0.7,2.6c0.2,0.8,0.3,1.6,0.5,2.2c0.2,1.3,0.3,2.1,0.4,1.8c0-0.1,0-0.5,0-1.3c0-0.7-0.2-1.8-0.4-3.3
						c-0.2-0.9-0.4-1.9-0.7-2.8c-0.3-0.9-0.6-1.8-0.9-2.7c-0.3-0.6-0.6-1.3-1-2.1c-0.4-0.7-0.9-1.5-1.4-2.3
						c-0.6-0.7-1.1-1.5-1.6-2.2c-0.6-0.6-1.1-1.2-1.6-1.7c-1-0.9-1.6-1.4-1.5-1.1c0.1,0.1,0.3,0.4,0.8,1c0.5,0.5,1.1,1.4,2,2.5
						c0.6,1,1.3,1.9,1.8,2.9c0.3,0.5,0.6,1,0.8,1.5l0.7,1.6c2.5,4.6,3.4,18.5,2.7,6.8c-0.1-1.3-0.5-2.5-0.8-3.7
						c-0.2-0.6-0.4-1.2-0.6-1.8l-0.3-0.9l-0.4-0.9c-0.9-2.4-2.3-4.5-3.8-6.6c-1.6-2-3.4-3.8-5.5-5.4c-2.1-1.5-4.4-2.8-6.8-3.7
						c-2.4-0.9-5-1.4-7.6-1.6c-0.6,0-1.3-0.2-1.9-0.2l-1.9,0.1l-1,0.1l-1,0.2c-0.6,0.1-1.3,0.2-1.9,0.3c-2.5,0.6-5,1.5-7.2,2.8
						c-0.6,0.3-1.1,0.7-1.6,1c-0.5,0.3-1.1,0.7-1.6,1.1l-1.5,1.2l-1.4,1.4c-1.8,1.9-3.4,3.9-4.6,6.2c-0.7,1.1-1.1,2.3-1.7,3.5
						c-0.2,0.6-0.4,1.2-0.6,1.8l-0.3,0.9c-0.1,0.3-0.2,0.6-0.2,0.9l-0.5,1.9l-0.3,1.9l-0.1,1c0,0.3,0,0.6-0.1,1l-0.1,1.9
						c0,2.6,0.3,5.1,0.9,7.6c1.3,5,3.8,9.6,7.3,13.3c3.5,3.7,8,6.4,12.9,7.7l0,0c-2.1,12.1-4.3,24-6.6,35.4c-0.3,1.3-0.6,3.8-1,6.4
						l0,0.1l0,0c0,1.5,0.3,3,0.8,4.3c0.4,1.3,1,2.4,1.5,3.1c0.5,0.7,0.9,1.2,1,1.2C411.9,419.5,411.6,419.1,411.1,418.2z"/>
				</g>
			</g>
		</g>
	</g>
</g>
</svg>
