<?xml version="1.0" encoding="utf-8"?>
<!-- Generator: Adobe Illustrator 18.0.0, SVG Export Plug-In . SVG Version: 6.00 Build 0)  -->
<!DOCTYPE svg PUBLIC "-//W3C//DTD SVG 1.1//EN" "http://www.w3.org/Graphics/SVG/1.1/DTD/svg11.dtd">
<svg version="1.1" id="Capa_1" xmlns="http://www.w3.org/2000/svg" xmlns:xlink="http://www.w3.org/1999/xlink" x="0px" y="0px"
	 viewBox="89.7 91.9 337.3 345.3" enable-background="new 89.7 91.9 337.3 345.3" xml:space="preserve">
<g>
	<path fill="#E9E8E8" d="M256,324.5c37.2,0,103.1,14.3,127.9,43.9c23.8-28.5,38.1-65.1,38.1-105.1c0-90.6-73.4-164-164-164
		s-164,73.4-164,164c0,38.9,13.6,74.6,36.2,102.7C156.4,338,219.8,324.5,256,324.5z"/>
	<path fill="#D4D4D4" d="M256,290c37.9,0,68.9-31,68.9-68.9s-31-68.9-68.9-68.9s-68.9,31-68.9,68.9S218.1,290,256,290z"/>
	<path fill="#D4D4D4" d="M258,427.3c50.6,0,95.8-22.9,125.9-58.9c-24.8-29.6-90.7-43.9-127.9-43.9c-36.2,0-99.6,13.6-125.8,41.6
		C160.2,403.4,206.3,427.3,258,427.3z"/>
</g>
</svg>
