<svg id="Layer_2" data-name="Layer 2" xmlns="http://www.w3.org/2000/svg" viewBox="0 0 704.6 297.13"><defs><style>.cls-1,.cls-3{opacity:0.3;}.cls-2{fill:none;}.cls-3,.cls-4,.cls-5,.cls-6,.cls-7,.cls-8{fill:#fff;}.cls-4{opacity:0.4;}.cls-5{opacity:0.9;}.cls-6{opacity:0.76;}.cls-7{opacity:0.8;}.cls-8{opacity:0.63;}</style></defs><title>infini</title><g class="cls-1"><path class="cls-2" d="M1563.94,411.17" transform="translate(-1371.16 -395.3)"/></g><path class="cls-3" d="M1753.23,580.93l-0.93.74c-0.63.5-1.56,1.22-2.81,2.17-2.49,1.88-6.24,4.61-11.23,8s-11.22,7.47-18.67,12-16.11,9.68-26,15.06-21,11.09-33.33,16.75-25.91,11.35-40.77,16.46A300.92,300.92,0,0,1,1571,664.77a202.85,202.85,0,0,1-27.12,2.73,153.35,153.35,0,0,1-28.61-1.68,123.67,123.67,0,0,1-14.53-3.18q-3.62-1-7.21-2.31c-1.19-.44-2.39-0.88-3.57-1.36l-0.45-.18-0.46-.19-0.86-.36-1.73-.72c-1.15-.47-2.32-1-3.49-1.51s-2.35-1-3.5-1.59l-3.48-1.65-3.46-1.72q-6.9-3.54-13.65-7.65A180.94,180.94,0,0,1,1433,624.3a160.32,160.32,0,0,1-22.47-24.49,136,136,0,0,1-16.83-29.89,111.33,111.33,0,0,1-8.07-34.44,90,90,0,0,1,.67-18.18,74.69,74.69,0,0,1,4.79-17.89,65.21,65.21,0,0,1,4.15-8.45c0.81-1.36,1.64-2.7,2.55-4l0.33-.49c0.11-.16.28-0.39,0.36-0.51l0.66-.9,0.66-.9,0.72-.93a129.57,129.57,0,0,1,12.38-13.79,169.34,169.34,0,0,1,63.65-38.5,159.26,159.26,0,0,1,18.45-4.84,146.25,146.25,0,0,1,19-2.47,139.46,139.46,0,0,1,38.47,2.85,150.71,150.71,0,0,1,36.52,13.05,186,186,0,0,1,32.54,21.23c5.06,4.12,9.83,8.33,14.69,12.55s9.64,8.47,14.44,12.74q14.39,12.81,28.66,25.76c19,17.23,38.07,34.48,57.35,51.24s38.8,33.11,59,48.17c10.12,7.52,20.42,14.72,31,21.39a304.88,304.88,0,0,0,32.52,18.07,174.5,174.5,0,0,0,34.44,12.42,116.58,116.58,0,0,0,17.84,2.82,134.49,134.49,0,0,0,17.94,0,150.76,150.76,0,0,0,66.58-20.07,128.3,128.3,0,0,0,14-9.55A112,112,0,0,0,2022.49,625c7.54-8,13.77-17.1,17.49-26.94a58.21,58.21,0,0,0,2.33-7.45,54.61,54.61,0,0,0,1.31-7.59,52.21,52.21,0,0,0,.21-7.6,55.6,55.6,0,0,0-.91-7.47,56.29,56.29,0,0,0-2-7.19,58.79,58.79,0,0,0-3-6.81c-0.27-.56-0.6-1.09-0.89-1.63l-0.45-.81c-0.07-.12-0.17-0.31-0.21-0.37l-0.26-.42-1-1.68c-0.34-.56-0.68-1.06-1-1.59-1.34-2.1-2.81-4.2-4.29-6.21a107.84,107.84,0,0,0-45.22-35.46,114.94,114.94,0,0,0-26.43-7.28,122.19,122.19,0,0,0-13.27-1.32c-2.2-.13-4.39-0.14-6.57-0.17l-3.26,0-1.62,0-1.62.08c-4.31.15-8.55,0.57-12.73,1s-8.29,1.15-12.31,2a214.57,214.57,0,0,0-23.2,5.88,285.32,285.32,0,0,0-40.36,16.25c-6.07,2.93-11.77,6-17.21,8.95-2.69,1.53-5.33,3-7.87,4.5s-5,2.94-7.4,4.43c-9.55,5.86-17.92,11.37-25,16.39-1.8,1.23-3.5,2.46-5.13,3.63l-4.7,3.38c-3,2.2-5.68,4.18-8.07,6l-6.31,4.84-4.54,3.57-3.7,2.92h0Zm-1.24-1.55,3.69-2.94,4.53-3.6,6.31-4.88,8-6.08,4.69-3.44c1.63-1.19,3.32-2.44,5.12-3.7,7.11-5.1,15.4-10.79,24.92-16.83s20.27-12.4,32.37-18.65c1.51-.79,3-1.58,4.6-2.33s3.13-1.55,4.73-2.32l4.86-2.27c1.64-.76,3.32-1.48,5-2.23,6.74-2.95,13.85-5.77,21.32-8.31a218.26,218.26,0,0,1,23.57-6.61c4.11-.93,8.33-1.66,12.62-2.33s8.68-1.14,13.14-1.39l1.68-.12,1.68-.07c1.13,0,2.25-.09,3.39-0.12,2.27,0,4.55-.05,6.85,0A128.33,128.33,0,0,1,1959,492.3a117.2,117.2,0,0,1,28.08,7.26,112.14,112.14,0,0,1,48.52,37.37c1.6,2.16,3.14,4.33,4.62,6.64,0.36,0.57.76,1.16,1.09,1.72l1,1.68,0.26,0.42c0.13,0.22.18,0.32,0.28,0.49l0.51,0.91c0.33,0.61.7,1.21,1,1.84a64.46,64.46,0,0,1,3.37,7.74,63.46,63.46,0,0,1,2.22,8.25,56.28,56.28,0,0,1,.57,17.2,58.36,58.36,0,0,1-1.64,8.51,63.24,63.24,0,0,1-2.78,8.22,87.2,87.2,0,0,1-19.67,28.4,125.46,125.46,0,0,1-28.24,20.62,154.63,154.63,0,0,1-33,13.17,161.87,161.87,0,0,1-17.58,3.82,171.66,171.66,0,0,1-18,2,145.32,145.32,0,0,1-18.3-.09,119.11,119.11,0,0,1-18.22-2.91,157.74,157.74,0,0,1-17.75-5.38c-5.83-2.11-11.56-4.53-17.2-7.17s-11.2-5.5-16.67-8.52-10.89-6.19-16.24-9.5c-10.68-6.63-21.12-13.75-31.39-21.18-41-29.8-79.46-64.16-117.93-98.16q-14.43-12.76-28.89-25.44-7.25-6.32-14.53-12.57c-4.86-4.14-9.74-8.35-14.64-12.26a179.94,179.94,0,0,0-31.67-20.23A144.25,144.25,0,0,0,1551.17,433a134,134,0,0,0-36.63-2.41,139.23,139.23,0,0,0-18.1,2.49,152.11,152.11,0,0,0-17.56,4.75,162.89,162.89,0,0,0-60.72,37,122.34,122.34,0,0,0-11.6,13l-0.64.84-0.66.9-0.66.9-0.29.4-0.29.43c-0.8,1.14-1.54,2.33-2.25,3.52a57.7,57.7,0,0,0-3.7,7.49,68.26,68.26,0,0,0-4.36,16.11A82.55,82.55,0,0,0,1393,535a105.6,105.6,0,0,0,7.19,32.31,123.79,123.79,0,0,0,7,14.87,136,136,0,0,0,8.65,13.77A153.75,153.75,0,0,0,1437,619.87a175.2,175.2,0,0,0,24.77,18.83q6.49,4.1,13.18,7.63l3.35,1.73,3.37,1.65c1.12,0.56,2.25,1.06,3.37,1.58s2.24,1,3.4,1.53l1.72,0.75,0.86,0.37,0.4,0.17,0.42,0.17c1.12,0.47,2.26.91,3.39,1.34q3.41,1.27,6.86,2.31A118.88,118.88,0,0,0,1516,661.2a148.89,148.89,0,0,0,27.75,2,205.44,205.44,0,0,0,26.62-2.27,297.52,297.52,0,0,0,48.13-11.66,423.05,423.05,0,0,0,40.73-15.79c12.33-5.52,23.46-11.06,33.33-16.38s18.54-10.34,26-14.89,13.63-8.62,18.59-12,8.68-6.1,11.15-8c1.23-.93,2.16-1.65,2.77-2.14l0.93-.74h0Z" transform="translate(-1371.16 -395.3)"/><path class="cls-4" d="M1754.84,595.61l-0.93.72c-0.59.46-1.63,1.22-2.9,2.12-2.58,1.8-6.46,4.35-11.65,7.36a377.42,377.42,0,0,1-46.64,22.5c-10.32,4.2-21.88,8.51-34.66,12.61s-26.76,8-41.91,11.29q-11.35,2.49-23.58,4.32c-8.14,1.22-16.56,2.18-25.24,2.72-4.34.31-8.74,0.45-13.2,0.53s-9,0-13.53-.26a177.81,177.81,0,0,1-27.8-3.47,138.63,138.63,0,0,1-27.83-8.9,214.6,214.6,0,0,1-27-13.9,158,158,0,0,1-25.11-18.89,128.71,128.71,0,0,1-11.09-11.72,112.36,112.36,0,0,1-9.52-13.35,93.12,93.12,0,0,1-12-31.18,84.48,84.48,0,0,1,.72-34.33,86.25,86.25,0,0,1,5.71-16.63,87.17,87.17,0,0,1,4.16-7.84c0.38-.64.76-1.28,1.17-1.9s0.79-1.26,1.22-1.87,0.83-1.23,1.27-1.85l1.27-1.78a155,155,0,0,1,24.17-26.36,124.68,124.68,0,0,1,30.76-19.63c2.82-1.26,5.71-2.36,8.64-3.38s5.92-1.87,8.94-2.63a104,104,0,0,1,18.53-2.8,107.71,107.71,0,0,1,18.86.54,122.07,122.07,0,0,1,18.58,3.7,155,155,0,0,1,34.88,14.94c5.51,3.15,10.87,6.58,16.08,10.22s10.25,7.52,15.17,11.56c2.47,2,4.86,4,7.27,6.08l7.23,6.06,14.54,12.08q14.59,12.06,29.41,23.9t29.87,23.4c20.12,15.32,40.55,30.23,61.54,44.09s42.48,26.74,64.75,37.54a315.34,315.34,0,0,0,34,14.19,193.63,193.63,0,0,0,35.11,8.84,144.79,144.79,0,0,0,17.74,1.45c3.08,0.06,6,.08,9,0,1.49,0,3-.07,4.47-0.13s3-.14,4.46-0.22a215.06,215.06,0,0,0,35.06-5,180.42,180.42,0,0,0,33.08-10.94A126.52,126.52,0,0,0,2027,621.67c8.67-7.17,16.08-15.82,20.85-25.74a57.06,57.06,0,0,0,5.3-31.69,70,70,0,0,0-3.78-15.54,121.44,121.44,0,0,0-6.65-14.42,131.71,131.71,0,0,0-17.37-25.69A82.28,82.28,0,0,0,2002.13,490a72.39,72.39,0,0,0-13.44-5.43,78.61,78.61,0,0,0-14-2.68,102.89,102.89,0,0,0-27.53,1.19,164.22,164.22,0,0,0-25.57,6.69A293,293,0,0,0,1877.08,510c-13.5,7.4-25.73,15-36.88,22.35s-21.15,14.39-30.12,20.87-16.86,12.44-23.68,17.68-12.58,9.75-17.24,13.42l-14.28,11.28Zm-3.26-4.12,3.62-2.94c2.39-1.93,5.95-4.8,10.64-8.47,9.4-7.32,23.26-18,41.43-30.8,9.09-6.42,19.28-13.35,30.59-20.56s23.78-14.68,37.52-21.9a297.12,297.12,0,0,1,45.37-19.66,166.73,166.73,0,0,1,26.06-6.39,106.67,106.67,0,0,1,28.11-.87,77.7,77.7,0,0,1,28,8.55,84.81,84.81,0,0,1,23.62,19.07,133.3,133.3,0,0,1,17.59,26c1.25,2.34,2.44,4.74,3.59,7.15,0.59,1.2,1.12,2.45,1.68,3.68s1,2.5,1.52,3.77a71.68,71.68,0,0,1,4,15.91,66.46,66.46,0,0,1,.49,8.3,62.11,62.11,0,0,1-.66,8.36,60.7,60.7,0,0,1-4.86,16.2,72,72,0,0,1-8.94,14.61c-0.86,1.15-1.82,2.23-2.74,3.34s-1.91,2.17-2.93,3.19c-2,2.1-4.1,4.08-6.27,6a118,118,0,0,1-14,10.5c-2.45,1.61-5,3.1-7.54,4.56s-5.18,2.82-7.85,4.1a184.13,184.13,0,0,1-33.57,12.36,212.79,212.79,0,0,1-35.88,6.2c-1.53.12-3.05,0.26-4.59,0.35s-3.07.19-4.6,0.25c-3.06.15-6.22,0.21-9.22,0.22a124,124,0,0,1-18.71-1.42,203,203,0,0,1-36.41-9.05,322.43,322.43,0,0,1-34.83-14.4c-11.36-5.45-22.5-11.4-33.45-17.74s-21.72-13-32.32-20c-21.21-13.95-41.84-28.87-62-44.4q-15.11-11.64-29.92-23.62c-9.88-8-19.63-16.08-29.32-24.21l-14.47-12.24-7.2-6.14c-2.39-2-4.78-4.11-7.15-6.09-4.77-4-9.64-7.81-14.65-11.42s-10.17-7-15.46-10.09A148.88,148.88,0,0,0,1542.63,447a116.54,116.54,0,0,0-17.64-3.78,102.22,102.22,0,0,0-17.89-.78,98.74,98.74,0,0,0-17.64,2.4c-2.88.69-5.74,1.46-8.55,2.38s-5.58,1.95-8.3,3.11a120.13,120.13,0,0,0-29.9,18.48,149.63,149.63,0,0,0-23.87,25.31l-1.29,1.76c-0.42.56-.82,1.16-1.23,1.74s-0.8,1.18-1.19,1.77-0.77,1.19-1.14,1.8a81,81,0,0,0-9.78,23.34,81.37,81.37,0,0,0-1.13,33.06A90.46,90.46,0,0,0,1414.38,588a115.24,115.24,0,0,0,20,24.76A156,156,0,0,0,1459,631.67a206.2,206.2,0,0,0,26.65,13.93,137,137,0,0,0,27.49,8.94c18.53,4,36.89,4.4,54.11,3.24,8.63-.58,17-1.63,25.08-2.92s15.89-2.89,23.39-4.64,14.71-3.7,21.61-5.74,13.51-4.18,19.8-6.38c12.59-4.39,24-8.95,34.09-13.37a396.46,396.46,0,0,0,45.62-23.18c5-3,8.75-5.57,11.17-7.32,1.22-.89,2.05-1.52,2.69-2l0.92-.73Z" transform="translate(-1371.16 -395.3)"/><path class="cls-3" d="M1743.65,596.13l-1,.72-1.19.89c-0.47.36-1,.77-1.7,1.23-2.7,1.89-6.66,4.44-12,7.48a336,336,0,0,1-48.12,21.92c-10.68,3.94-22.66,7.88-35.9,11.46a384.23,384.23,0,0,1-43.45,9.17c-7.86,1.07-16,2.11-24.43,2.61-4.21.35-8.49,0.43-12.83,0.59-1.08.05-2.17,0-3.27,0h-3.29c-2.2,0-4.42,0-6.65-.12l-6.73-.3c-2.26-.13-4.52-0.38-6.8-0.57l-3.43-.31-3.44-.46L1526,650l-1.74-.24c-0.58-.07-1.16-0.16-1.74-0.28l-7-1.32c-0.58-.12-1.17-0.21-1.75-0.34l-1.74-.43-3.49-.86-3.51-.87c-1.16-.33-2.32-0.71-3.48-1.06l-3.5-1.08c-1.17-.36-2.35-0.7-3.49-1.17l-6.95-2.62-0.44-.16-0.46-.2-0.84-.37-1.69-.74-3.39-1.48c-2.27-.94-4.54-2.09-6.83-3.17l-3.43-1.64-3.38-1.77a191.39,191.39,0,0,1-26.44-16.46,142.09,142.09,0,0,1-23.62-22.09c-0.87-1.06-1.71-2.17-2.56-3.25l-1.28-1.64c-0.43-.54-0.8-1.13-1.2-1.7l-2.38-3.43c-0.75-1.18-1.46-2.38-2.19-3.58a90.3,90.3,0,0,1-7.36-15.27,81.81,81.81,0,0,1-5.13-34.15,86,86,0,0,1,9.53-34.11c0.69-1.33,1.36-2.68,2.15-4l1.14-1.95,0.57-1,0.66-1,2.45-3.66c0.38-.61.88-1.22,1.34-1.83l1.4-1.83,1.4-1.83c0.47-.6,1-1.15,1.48-1.73l3-3.43,3.2-3.26c0.54-.53,1.05-1.11,1.63-1.61l1.7-1.54a121.79,121.79,0,0,1,30.73-20.25l4.28-1.84,2.14-.92,2.19-.81,4.39-1.62,4.47-1.4,2.24-.69,2.27-.59,4.55-1.17,4.61-.94,2.31-.47,2.33-.36,4.67-.71,4.71-.49,2.36-.24c0.79-.07,1.58-0.09,2.37-0.14l4.75-.24c1.58-.06,3.17,0,4.76,0s3.18,0,4.77.08c3.18,0.17,6.36.28,9.53,0.67,1.58,0.18,3.18.3,4.76,0.52l4.74,0.73,2.37,0.37,2.35,0.49,4.71,1c1.57,0.34,3.11.79,4.67,1.18l2.33,0.61c0.78,0.2,1.56.4,2.32,0.66l4.6,1.46c0.77,0.25,1.54.48,2.3,0.74l2.26,0.85a167.77,167.77,0,0,1,34.56,17.51l1,0.65,1,0.7,2,1.41,4,2.82c2.58,2,5.12,4,7.68,6,4.91,4.09,9.83,8.25,14.68,12.46s9.68,8.46,14.47,12.76,9.58,8.61,14.32,13c19,17.45,37.71,35.28,56.77,52.73s38.49,34.48,58.81,50.22c10.14,7.88,20.52,15.4,31.19,22.39a293.84,293.84,0,0,0,33,18.9,172.06,172.06,0,0,0,35,12.86,115.15,115.15,0,0,0,18.06,2.88c1.51,0.07,3,.21,4.52.24l4.69,0.14,4.59,0c1.52,0,3.07,0,4.6,0q9.21-.13,18.32-0.89c6.07-.52,12.08-1.29,18-2.26a204.16,204.16,0,0,0,34.64-8.74,169.59,169.59,0,0,0,16.23-6.68,148.61,148.61,0,0,0,15.17-8.33,126.88,126.88,0,0,0,13.81-10,109.39,109.39,0,0,0,12-11.71,79.57,79.57,0,0,0,16.15-28.26A68.86,68.86,0,0,0,2060,561.4a85.63,85.63,0,0,0-11-29.65l-1-1.69-0.51-.84-0.25-.42s-0.17-.25-0.24-0.37c-0.74-1.12-1.48-2.27-2.22-3.25s-1.53-2-2.32-3c-0.4-.5-0.83-1-1.24-1.47s-0.82-1-1.27-1.44a72.15,72.15,0,0,0-11.37-10.1,86.74,86.74,0,0,0-26.9-12.69,120.44,120.44,0,0,0-28.62-4.28,167,167,0,0,0-27.9,1.58c-4.53.59-9,1.43-13.36,2.29s-8.68,1.91-12.89,3c-8.43,2.24-16.55,4.83-24.34,7.65s-15.25,5.87-22.39,9-14,6.43-20.49,9.72-12.73,6.63-18.63,10c-11.82,6.62-22.44,13.14-31.89,19.25-18.91,12.23-33.18,22.76-42.79,30.07l-6.34,4.86-4.57,3.58-3.72,2.92Zm-3.15-4,3.71-3,4.55-3.65,6.33-5,8.07-6.2c3-2.24,6.25-4.7,9.8-7.31,7.09-5.25,15.37-11.11,24.81-17.44q7.08-4.75,15.08-9.76c2.65-1.68,5.42-3.33,8.22-5.05s5.72-3.39,8.7-5.08c5.94-3.43,12.25-6.8,18.84-10.2s13.56-6.66,20.83-9.87,14.89-6.28,22.87-9.09,16.3-5.41,25-7.59c4.33-1.12,8.77-2.07,13.27-3s9.1-1.63,13.78-2.19a173.65,173.65,0,0,1,28.9-1.29,128.27,128.27,0,0,1,29.91,4.73,93.14,93.14,0,0,1,28.54,13.53A77.6,77.6,0,0,1,2044,515.52c0.48,0.49.92,1,1.38,1.55s0.92,1,1.35,1.58c0.86,1.09,1.74,2.15,2.56,3.32s1.59,2.26,2.34,3.38c0.11,0.16.16,0.23,0.31,0.47l0.27,0.44,0.55,0.88,1.09,1.76a98.27,98.27,0,0,1,12.49,31.37,79.07,79.07,0,0,1,1.57,17.43,77.21,77.21,0,0,1-2.45,17.67,85.35,85.35,0,0,1-16.53,32.17,105.46,105.46,0,0,1-12.79,13.22,123.52,123.52,0,0,1-14.85,11,144.38,144.38,0,0,1-16.3,8.87,166.15,166.15,0,0,1-17.31,6.91c-23.63,8-49,11.1-74.26,10.59-3.16,0-6.35-.21-9.54-0.35l-4.69-.32c-1.62-.09-3.24-0.29-4.85-0.44a121.92,121.92,0,0,1-19-3.77,183.49,183.49,0,0,1-35.74-14.58c-5.7-3-11.27-6.22-16.74-9.6s-10.86-6.92-16.17-10.56c-10.61-7.3-20.92-15.06-31-23.08s-20.05-16.29-29.9-24.68-19.6-16.89-29.34-25.41c-19.46-17.05-38.77-34.26-58.18-51.15q-14.53-12.7-29.17-25.08c-4.89-4.12-9.76-8.2-14.7-12.24-2.48-1.92-4.92-3.87-7.41-5.76l-3.83-2.7-1.91-1.35-1-.67-1-.62a164.72,164.72,0,0,0-33.1-16.78l-2.16-.83c-0.73-.26-1.46-0.48-2.19-0.72l-4.39-1.42c-0.73-.25-1.47-0.45-2.21-0.65l-2.22-.6c-1.49-.38-3-0.83-4.45-1.16l-4.49-1-2.24-.48-2.26-.37-4.52-.73c-1.51-.22-3-0.35-4.54-0.53-3-.4-6.06-0.52-9.1-0.7-1.52-.13-3-0.08-4.55-0.11s-3-.06-4.54,0l-4.53.18c-0.75,0-1.51,0-2.26.11l-2.25.2-4.5.41-4.47.63-2.23.32-2.21.43-4.42.85-4.36,1.07-2.18.54-2.14.64-4.28,1.29-4.2,1.5-2.1.75-2.05.86-4.1,1.72a115.91,115.91,0,0,0-29.4,19l-1.63,1.44c-0.55.47-1,1-1.55,1.51l-3.06,3.06-2.87,3.22c-0.47.54-1,1.07-1.41,1.62l-1.3,1.67-1.3,1.66c-0.43.56-.88,1.08-1.29,1.72l-2.48,3.64-0.57.83-0.55.91-1.1,1.83c-0.76,1.2-1.39,2.47-2.06,3.72a80.74,80.74,0,0,0-9.26,32,79,79,0,0,0,.56,16.42,80.22,80.22,0,0,0,4,15.76,94.08,94.08,0,0,0,16,27.6,134.17,134.17,0,0,0,22.79,21.41,186.91,186.91,0,0,0,25.83,16.06l3.31,1.73,3.34,1.6c2.23,1.05,4.4,2.15,6.7,3.11l3.39,1.48,1.69,0.73,0.84,0.37,0.39,0.17,0.42,0.16,6.73,2.53c1.11,0.45,2.25.78,3.39,1.12l3.4,1c1.13,0.34,2.25.7,3.38,1l3.42,0.83,3.4,0.83,1.69,0.41c0.57,0.13,1.14.22,1.71,0.33l6.79,1.26c0.56,0.12,1.13.2,1.69,0.27l1.7,0.23,3.38,0.45,3.36,0.44,3.36,0.29c2.23,0.18,4.45.42,6.66,0.54l6.6,0.28c2.18,0.13,4.36.08,6.52,0.09h3.23c1.07,0,2.14,0,3.21,0,4.26-.17,8.47-0.26,12.6-0.62,8.28-.52,16.29-1.57,24-2.65a379.31,379.31,0,0,0,42.84-9.2c13.07-3.59,24.89-7.52,35.43-11.45a343.52,343.52,0,0,0,47.43-21.47c5.19-3,9-5.48,11.46-7.18,0.62-.41,1.17-0.84,1.64-1.19l1.18-.9,1-.73Z" transform="translate(-1371.16 -395.3)"/><path class="cls-5" d="M1749.45,574.87l-0.93.74c-0.63.5-1.56,1.22-2.81,2.17-2.49,1.88-6.24,4.61-11.23,8s-11.22,7.47-18.67,12-16.11,9.68-26,15.06-21,11.09-33.33,16.75S1630.57,641,1615.7,646.1a300.92,300.92,0,0,1-48.49,12.61,202.83,202.83,0,0,1-27.12,2.73,153.35,153.35,0,0,1-28.61-1.68,123.67,123.67,0,0,1-14.53-3.18q-3.62-1-7.21-2.31c-1.19-.44-2.39-0.88-3.57-1.36l-0.45-.18-0.46-.19-0.86-.36-1.73-.72c-1.15-.47-2.32-1-3.49-1.51s-2.35-1-3.5-1.59l-3.48-1.65-3.46-1.72q-6.9-3.54-13.65-7.65a180.94,180.94,0,0,1-25.85-19.1,160.33,160.33,0,0,1-22.47-24.49,136,136,0,0,1-16.83-29.89,111.33,111.33,0,0,1-8.07-34.44,90,90,0,0,1,.67-18.18,74.69,74.69,0,0,1,4.79-17.89,65.21,65.21,0,0,1,4.15-8.45c0.81-1.36,1.64-2.7,2.55-4l0.33-.49c0.11-.16.28-0.39,0.36-0.51l0.66-.9,0.66-.9,0.72-.93a129.57,129.57,0,0,1,12.38-13.79,169.34,169.34,0,0,1,63.65-38.5,159.27,159.27,0,0,1,18.45-4.84,146.28,146.28,0,0,1,19-2.47,139.46,139.46,0,0,1,38.47,2.85,150.71,150.71,0,0,1,36.52,13.05,186,186,0,0,1,32.54,21.23c5.06,4.12,9.83,8.33,14.69,12.55s9.64,8.47,14.44,12.74q14.39,12.81,28.66,25.76c19,17.23,38.07,34.48,57.35,51.24s38.8,33.11,59,48.17c10.12,7.52,20.42,14.72,31,21.39a304.88,304.88,0,0,0,32.52,18.07A174.5,174.5,0,0,0,1890,657a116.6,116.6,0,0,0,17.84,2.82,134.51,134.51,0,0,0,17.94,0,150.75,150.75,0,0,0,66.58-20.07,128.29,128.29,0,0,0,14-9.55A112,112,0,0,0,2018.72,619c7.54-8,13.77-17.1,17.49-26.94a58.19,58.19,0,0,0,2.33-7.45,54.6,54.6,0,0,0,1.31-7.59,52.21,52.21,0,0,0,.21-7.6,55.61,55.61,0,0,0-.91-7.47,56.3,56.3,0,0,0-2-7.19,58.81,58.81,0,0,0-3-6.81c-0.27-.56-0.6-1.09-0.89-1.63l-0.45-.81c-0.07-.12-0.17-0.31-0.21-0.37l-0.26-.42-1-1.68c-0.34-.56-0.68-1.06-1-1.59-1.34-2.1-2.81-4.2-4.29-6.21a107.83,107.83,0,0,0-45.22-35.46,114.94,114.94,0,0,0-26.43-7.28,122.19,122.19,0,0,0-13.27-1.32c-2.2-.13-4.39-0.14-6.57-0.17l-3.26,0-1.62,0-1.62.08c-4.31.15-8.55,0.57-12.73,1s-8.29,1.15-12.31,2a214.58,214.58,0,0,0-23.2,5.88,285.32,285.32,0,0,0-40.36,16.25c-6.07,2.93-11.77,6-17.21,8.95-2.69,1.53-5.33,3-7.87,4.5s-5,2.94-7.4,4.43c-9.55,5.86-17.92,11.37-25,16.39-1.8,1.23-3.5,2.46-5.13,3.63l-4.7,3.38c-3,2.2-5.68,4.18-8.07,6l-6.31,4.84-4.54,3.57-3.7,2.92h0Zm-1.24-1.55,3.69-2.94,4.53-3.6,6.31-4.88,8-6.08,4.69-3.44c1.63-1.19,3.32-2.44,5.12-3.7,7.11-5.1,15.4-10.79,24.92-16.83s20.27-12.4,32.37-18.65c1.51-.79,3-1.58,4.6-2.33s3.13-1.55,4.73-2.32l4.86-2.27c1.64-.76,3.32-1.48,5-2.23,6.74-2.95,13.85-5.77,21.32-8.31a218.26,218.26,0,0,1,23.57-6.61c4.11-.93,8.33-1.66,12.62-2.33s8.68-1.14,13.14-1.39l1.68-.12,1.68-.07c1.13,0,2.25-.09,3.39-0.12,2.27,0,4.55-.05,6.85,0a128.33,128.33,0,0,1,13.94,1.09,117.21,117.21,0,0,1,28.08,7.26,112.14,112.14,0,0,1,48.52,37.37c1.6,2.16,3.14,4.33,4.62,6.64,0.36,0.57.76,1.16,1.09,1.72l1,1.68,0.26,0.42c0.13,0.22.18,0.32,0.28,0.49l0.51,0.91c0.33,0.61.7,1.21,1,1.84a64.45,64.45,0,0,1,3.37,7.74,63.44,63.44,0,0,1,2.22,8.25,56.28,56.28,0,0,1,.57,17.2,58.35,58.35,0,0,1-1.64,8.51,63.24,63.24,0,0,1-2.78,8.22,87.2,87.2,0,0,1-19.67,28.4,125.45,125.45,0,0,1-28.24,20.62,154.63,154.63,0,0,1-33,13.17,161.85,161.85,0,0,1-17.58,3.82,171.66,171.66,0,0,1-18,2,145.31,145.31,0,0,1-18.3-.09,119.11,119.11,0,0,1-18.22-2.91,157.73,157.73,0,0,1-17.75-5.38c-5.83-2.11-11.56-4.53-17.2-7.17s-11.2-5.5-16.67-8.52-10.89-6.19-16.24-9.5c-10.68-6.63-21.12-13.75-31.39-21.18-41-29.8-79.46-64.16-117.93-98.16q-14.43-12.76-28.89-25.44-7.25-6.32-14.53-12.57c-4.86-4.14-9.74-8.35-14.64-12.26a179.94,179.94,0,0,0-31.67-20.23,144.25,144.25,0,0,0-35.08-12.16,134,134,0,0,0-36.63-2.41,139.24,139.24,0,0,0-18.1,2.49,152.1,152.1,0,0,0-17.56,4.75,162.89,162.89,0,0,0-60.72,37,122.33,122.33,0,0,0-11.6,13l-0.64.84-0.66.9-0.66.9-0.29.4-0.29.43c-0.8,1.14-1.54,2.33-2.25,3.52a57.69,57.69,0,0,0-3.7,7.49,68.26,68.26,0,0,0-4.36,16.11,82.56,82.56,0,0,0-.72,16.68,105.6,105.6,0,0,0,7.19,32.31,123.79,123.79,0,0,0,7,14.87,136,136,0,0,0,8.65,13.77,153.75,153.75,0,0,0,21.22,23.87A175.2,175.2,0,0,0,1458,632.64q6.49,4.1,13.18,7.63l3.35,1.73,3.37,1.65c1.12,0.56,2.25,1.06,3.37,1.58s2.24,1,3.4,1.53l1.72,0.75,0.86,0.37,0.4,0.17,0.42,0.17c1.12,0.47,2.26.91,3.39,1.34q3.41,1.27,6.86,2.31a118.88,118.88,0,0,0,13.92,3.26,148.87,148.87,0,0,0,27.75,2,205.44,205.44,0,0,0,26.62-2.27,297.52,297.52,0,0,0,48.13-11.66,423,423,0,0,0,40.73-15.79c12.33-5.52,23.46-11.06,33.33-16.38s18.54-10.34,26-14.89,13.63-8.62,18.59-12,8.68-6.1,11.15-8c1.23-.93,2.16-1.65,2.77-2.14l0.93-.74h0Z" transform="translate(-1371.16 -395.3)"/><path class="cls-6" d="M1765.9,581l-0.9.84c-0.62.57-1.53,1.37-2.77,2.41-2.48,2.07-6.25,5-11.33,8.59s-11.46,7.82-19.13,12.53-16.59,9.94-26.8,15.42S1683.32,632,1670.6,637.8s-26.67,11.59-41.93,16.91A349,349,0,0,1,1579,668.32a235.67,235.67,0,0,1-27.75,3.67,171.77,171.77,0,0,1-29.43-.35,121.15,121.15,0,0,1-30.09-6.85c-0.62-.22-1.23-0.48-1.85-0.72l-0.95-.38-0.89-.38-3.59-1.52-3.64-1.63c-1.21-.56-2.4-1.14-3.6-1.72-4.78-2.34-9.52-4.92-14.15-7.78a133.69,133.69,0,0,1-26-20.67,114.75,114.75,0,0,1-10.94-13.17,105.72,105.72,0,0,1-8.86-15,102.13,102.13,0,0,1-9.57-34.19,110,110,0,0,1,17.16-70.53,111,111,0,0,1,11.82-14.8,151.41,151.41,0,0,1,13.83-13,171.51,171.51,0,0,1,32-20.93,159.26,159.26,0,0,1,36.43-13.26,145.62,145.62,0,0,1,19.38-3.13,138.79,138.79,0,0,1,19.74-.48,141.48,141.48,0,0,1,38.95,7.38,163.88,163.88,0,0,1,35.82,17.4A191.25,191.25,0,0,1,1649,468c1.32,1,2.59,2.09,3.87,3.16s2.57,2.14,3.8,3.21l7.47,6.47c19.85,17.34,39.39,35.14,59,52.85s39.29,35.29,59.36,52.26,40.58,33.25,62.08,47.76a358.67,358.67,0,0,0,33.11,20,209.19,209.19,0,0,0,35.15,14.9c24.12,8,50,6.81,73.76,1a133.65,133.65,0,0,0,33.64-13.47,109.7,109.7,0,0,0,27.43-22,85,85,0,0,0,17.23-29.17,72.24,72.24,0,0,0,3.44-16.16c0.15-1.36.2-2.73,0.27-4.09s0.06-2.72,0-4.08a65.47,65.47,0,0,0-.66-8.08,71.75,71.75,0,0,0-1.58-7.91c-0.15-.65-0.35-1.29-0.53-1.94s-0.36-1.29-.58-1.92l-0.63-1.9-0.69-1.94c-1.86-5.13-3.95-10.18-6.25-15.06a152.15,152.15,0,0,0-16.35-27.22A114.41,114.41,0,0,0,2020,492.89a94.5,94.5,0,0,0-25.61-14,97.32,97.32,0,0,0-27.58-5.46,124.32,124.32,0,0,0-27.07,1.61,167.52,167.52,0,0,0-25.2,6.3,228.64,228.64,0,0,0-22.94,9c-7.27,3.31-14.17,6.85-20.7,10.49s-12.72,7.36-18.58,11.09c-11.72,7.44-22.07,14.93-31.27,21.88s-17.18,13.47-24,19.27-12.56,10.84-17.16,15-8.07,7.37-10.4,9.55L1765.9,581h0Zm-1.36-1.44,3.53-3.34c2.33-2.2,5.81-5.44,10.38-9.62,9.19-8.32,22.75-20.47,41-34.78,9.13-7.13,19.48-14.74,31.12-22.49a335.14,335.14,0,0,1,39.28-22.61,233,233,0,0,1,23.18-9.73,172.12,172.12,0,0,1,25.8-7,136.45,136.45,0,0,1,13.85-1.9c2.36-.21,4.74-0.33,7.13-0.41s4.82-.06,7.25,0a103.4,103.4,0,0,1,29.4,5.27A98.9,98.9,0,0,1,2024,487.49,119,119,0,0,1,2047,510.27a155.07,155.07,0,0,1,17.28,28.44c2.41,5.09,4.61,10.31,6.55,15.71l0.71,2,0.69,2.09c0.24,0.69.42,1.41,0.63,2.12s0.41,1.42.58,2.14a72.43,72.43,0,0,1,1.69,8.74,75,75,0,0,1-3.94,35.6,89.17,89.17,0,0,1-19.45,30.72,114.33,114.33,0,0,1-29.48,22,142.44,142.44,0,0,1-34.94,12.8,171.52,171.52,0,0,1-37.47,4.21h-3.54l-1.21,0c-1.59-.05-3.19-0.09-4.78-0.24l-2.39-.19-2.38-.27c-1.59-.16-3.17-0.42-4.75-0.66a134.4,134.4,0,0,1-18.7-4.44,217.29,217.29,0,0,1-35.61-15,374.68,374.68,0,0,1-33.51-19.89c-10.9-7.17-21.54-14.81-32-22.71s-20.79-16.08-31-24.44c-20.4-16.7-40.29-34.14-60.1-51.62s-39.51-35.09-59.47-52.18l-7.5-6.38c-1.26-1.08-2.5-2.09-3.76-3.12s-2.5-2.06-3.79-3a185.28,185.28,0,0,0-15.82-11.14,157.59,157.59,0,0,0-34.6-16.39,136.12,136.12,0,0,0-37.19-6.7,131.88,131.88,0,0,0-18.78.6,138.55,138.55,0,0,0-18.43,3.12A156.72,156.72,0,0,0,1485.79,455a164.13,164.13,0,0,0-30.52,20.1,144,144,0,0,0-13.11,12.36,106,106,0,0,0-11,13.83,103,103,0,0,0-13.77,31.83,104.78,104.78,0,0,0-2.7,33.9,96.91,96.91,0,0,0,8.48,32.07,99.34,99.34,0,0,0,8.08,14.23,107.59,107.59,0,0,0,10.13,12.62A128,128,0,0,0,1466,646c4.42,2.82,9,5.38,13.58,7.72,1.16,0.57,2.31,1.16,3.47,1.72l3.47,1.62,3.56,1.56,0.89,0.39,0.85,0.35c0.58,0.23,1.16.49,1.75,0.7a116.34,116.34,0,0,0,28.8,7,167.38,167.38,0,0,0,28.67.72,238.29,238.29,0,0,0,27.34-3.19,345.65,345.65,0,0,0,49.39-12.68c15.22-5.08,29.2-10.65,41.91-16.28s24.18-11.27,34.36-16.7,19.12-10.56,26.76-15.24,14-8.91,19-12.47,8.77-6.46,11.2-8.5c1.21-1,2.12-1.81,2.7-2.35l0.89-.83h0Z" transform="translate(-1371.16 -395.3)"/><path class="cls-3" d="M2028.1,470.22" transform="translate(-1371.16 -395.3)"/><path class="cls-3" d="M2028.1,476.85l-0.85-.57c-0.56-.38-1.4-0.95-2.53-1.66-2.25-1.44-5.62-3.51-10.21-5.87a109.73,109.73,0,0,0-17.54-7.17,105.94,105.94,0,0,0-25.13-4.56,121,121,0,0,0-31.52,2.46A166.56,166.56,0,0,0,1905,471.34a259.31,259.31,0,0,0-36.91,21,398.61,398.61,0,0,0-37.33,28.82c-12.44,10.77-24.85,22.62-37.22,35.35-3.08,3.2-6.18,6.42-9.26,9.73s-6.22,6.69-9.46,10q-9.71,10-20.34,19.55-5.32,4.79-10.86,9.47t-11.36,9.18c-7.73,6-15.77,11.87-24.16,17.39s-17.14,10.73-26.22,15.54q-6.81,3.61-13.88,6.88t-14.42,6.09c-19.54,7.56-40.56,12.82-62.29,13.95a163.9,163.9,0,0,1-32.7-1.58,159.26,159.26,0,0,1-32-8.3q-3.89-1.46-7.71-3.11l-3.76-1.68c-1.23-.54-2.51-1.17-3.76-1.76-5-2.39-9.9-5-14.71-7.72a193.37,193.37,0,0,1-27.4-19,168.74,168.74,0,0,1-23.53-23.85,144.08,144.08,0,0,1-17.94-28.41,117.87,117.87,0,0,1-10.08-32.1,89.07,89.07,0,0,1,.87-33.64A74.08,74.08,0,0,1,1421,505a70.38,70.38,0,0,1,3.37-7.78,60.34,60.34,0,0,1,4.36-7.27l0.6-.87,0.63-.85c0.42-.55.8-1.09,1.24-1.65l1.3-1.66,1.32-1.61a133,133,0,0,1,11.42-12,158.06,158.06,0,0,1,12.61-10.6,168.14,168.14,0,0,1,58-28.51,143.07,143.07,0,0,1,62.92-2.62,152,152,0,0,1,29.7,8.74c4.74,1.94,9.4,4,13.89,6.4s8.92,4.81,13.16,7.51c2.15,1.31,4.21,2.74,6.3,4.11,1,0.7,2,1.43,3.07,2.15s2,1.43,3,2.18l3,2.23c1,0.74,1.95,1.53,2.92,2.29,2,1.53,3.84,3.08,5.72,4.62q5.65,4.63,11.18,9.25l10.93,9.25c28.9,24.57,55.09,49,80,70.58,12.45,10.82,24.45,21.11,36.1,30.59s22.86,18.25,33.64,26.14q8.09,5.92,15.84,11.17t15.1,9.83A308.92,308.92,0,0,0,1890.06,652c17.2,8.36,31.71,12.61,41.75,14.43a113.1,113.1,0,0,0,11.56,1.56l4,0.23,0,2-4.09,0a115.52,115.52,0,0,1-11.88-1.06,134.73,134.73,0,0,1-18.77-4.15,191.81,191.81,0,0,1-24.34-9.08c-17.78-7.91-38.26-19.83-60.3-35.42s-45.8-34.62-70.92-56.19c-12.55-10.81-25.46-22.22-38.78-34.07s-26.92-24.27-40.89-37l-10.57-9.6q-5.32-4.84-10.74-9.68c-1.82-1.62-3.63-3.25-5.46-4.81-0.92-.78-1.82-1.6-2.76-2.36l-2.82-2.31c-0.93-.78-1.9-1.52-2.87-2.26s-1.92-1.5-2.91-2.23c-2-1.43-3.94-2.91-6-4.26a156.23,156.23,0,0,0-26-14.5c-2.29-1-4.64-1.93-7-2.85l-3.57-1.27c-1.19-.43-2.41-0.78-3.61-1.18a132.82,132.82,0,0,0-45.61-6,140.75,140.75,0,0,0-31,4.83,161.18,161.18,0,0,0-56.67,28.63,152.35,152.35,0,0,0-12.17,10.57,129.3,129.3,0,0,0-10.91,11.86l-1.25,1.58-1.2,1.59c-0.4.52-.8,1.1-1.2,1.65l-0.58.81-0.55.82a56.32,56.32,0,0,0-4,6.87,66.23,66.23,0,0,0-3,7.34,73.65,73.65,0,0,0-2.13,7.68,84.52,84.52,0,0,0-.4,31.91,113.08,113.08,0,0,0,10,30.61,138.68,138.68,0,0,0,17.58,27.14,163,163,0,0,0,23,22.77,187.21,187.21,0,0,0,26.74,18.09c4.69,2.63,9.49,5.07,14.33,7.32,1.22,0.55,2.39,1.12,3.66,1.66l3.7,1.6q3.68,1.54,7.43,2.9a153.2,153.2,0,0,0,30.69,7.67,156.74,156.74,0,0,0,31.29,1.24c20.79-1.18,41-6.26,60-13.66q7.11-2.77,14-6t13.54-6.65c8.87-4.66,17.43-9.73,25.68-15.09a410.08,410.08,0,0,0,46-34.81q10.64-9.25,20.39-18.89c3.27-3.21,6.37-6.45,9.56-9.73s6.35-6.46,9.51-9.62c12.7-12.6,25.45-24.31,38.2-34.95A402.76,402.76,0,0,1,1866,489.23a258,258,0,0,1,37.79-20.54,169.06,169.06,0,0,1,36.1-11.28,121.94,121.94,0,0,1,32-1.81,107.05,107.05,0,0,1,25.28,5.2,110.31,110.31,0,0,1,17.46,7.62c4.54,2.48,7.87,4.63,10.09,6.12,1.11,0.74,1.93,1.33,2.49,1.72Z" transform="translate(-1371.16 -395.3)"/><path class="cls-3" d="M1467.43,405.7l3.63-1.51c2.42-1,6-2.33,10.86-3.77a123.07,123.07,0,0,1,18.12-3.94,126.33,126.33,0,0,1,25.09-.93,135.29,135.29,0,0,1,14.78,1.72,152.18,152.18,0,0,1,15.94,3.6A189.6,189.6,0,0,1,1590,414.32a265.1,265.1,0,0,1,35.59,21.84q8.95,6.46,17.88,13.85t18.05,15.21c24.49,20.81,50.54,43.88,78.68,67.53,14.08,11.81,28.66,23.79,43.89,35.6,7.62,5.9,15.35,11.8,23.28,17.59s16,11.5,24.29,17.07,16.74,11,25.44,16.11c4.36,2.54,8.75,5.06,13.22,7.46s9,4.69,13.61,6.87a207.31,207.31,0,0,0,28.5,11.1,151.12,151.12,0,0,0,14.86,3.65c1.25,0.23,2.51.48,3.77,0.65s2.52,0.4,3.78.53l1.9,0.22,0.47,0.06,0.43,0,1,0.08c1.3,0.1,2.65.25,3.9,0.3a135,135,0,0,0,60.67-10,120.69,120.69,0,0,0,26.94-15.64,104.21,104.21,0,0,0,11.62-10.4,93.52,93.52,0,0,0,9.85-12,72.52,72.52,0,0,0,11.92-28.3,56.88,56.88,0,0,0,.59-15.28,54.83,54.83,0,0,0-1.3-7.53,57.37,57.37,0,0,0-2.36-7.28,61,61,0,0,0-3.36-6.89c-0.62-1.07-1.34-2.29-2-3.37s-1.38-2.18-2.12-3.26a111.35,111.35,0,0,0-9.59-12.32,109.66,109.66,0,0,0-11.19-10.84,103.56,103.56,0,0,0-12.59-9.1,108.25,108.25,0,0,0-28.33-12.26,124.07,124.07,0,0,0-30.42-4.23,143.26,143.26,0,0,0-15.29.53q-7.61.64-15.09,2a205.32,205.32,0,0,0-29.19,7.51,288.28,288.28,0,0,0-53.42,24.51,465.63,465.63,0,0,0-46.72,31.5c-1.82,1.4-3.65,2.74-5.45,4.15l-5.37,4.17c-1.78,1.38-3.52,2.81-5.28,4.2s-3.51,2.78-5.22,4.2l-5.15,4.2-1.3,1.06-1.34,1.07-2.66,2.06c-3.56,2.7-7.16,5.25-10.76,7.73-7.21,4.93-14.46,9.5-21.68,13.83s-14.39,8.4-21.49,12.24-14.14,7.47-21.11,10.82-13.85,6.48-20.63,9.38-13.45,5.56-20,8-13,4.59-19.27,6.54c-25.13,7.82-48,11.64-67,12.19a160.79,160.79,0,0,1-25.26-1.14,128.32,128.32,0,0,1-18.32-3.7,111.88,111.88,0,0,1-11-3.73c-1.22-.48-2.13-0.87-2.74-1.14l-0.92-.4,0.76-1.83,0.92,0.34c0.61,0.23,1.52.57,2.74,1a109.4,109.4,0,0,0,10.89,3.12c9.63,2.3,24.2,4.32,42.7,3.13a220.05,220.05,0,0,0,30.38-4.16,312.22,312.22,0,0,0,34.94-9.43c6.14-2,12.42-4.31,18.84-6.79s13-5.18,19.6-8.12,13.4-6.11,20.23-9.5,13.78-7,20.77-10.81c14-7.65,28.25-16.26,42.48-25.84q5.34-3.58,10.6-7.41l2.61-1.93,1.28-1,1.3-1,5.31-4.1c7.14-5.45,14.5-10.84,22.12-16.07A515.7,515.7,0,0,1,1846.25,513c8.55-4.59,17.32-9,26.36-13a299.5,299.5,0,0,1,27.89-11c4.8-1.55,9.64-3.05,14.57-4.3,2.45-.69,4.95-1.22,7.43-1.83s5-1.09,7.53-1.51,5.06-.85,7.61-1.24,5.11-.67,7.69-0.89a146,146,0,0,1,15.56-.71,130.21,130.21,0,0,1,31.21,3.9,112.51,112.51,0,0,1,29.47,12.14,107.51,107.51,0,0,1,13.22,9.2,110.31,110.31,0,0,1,11.81,11.06,115.82,115.82,0,0,1,10.16,12.67c0.78,1.1,1.53,2.25,2.28,3.4s1.4,2.22,2.14,3.45a65.77,65.77,0,0,1,3.75,7.42,62.23,62.23,0,0,1,2.68,7.9,59.8,59.8,0,0,1,1.54,8.21,61.56,61.56,0,0,1-.41,16.67,77.94,77.94,0,0,1-12.42,30.59A99.26,99.26,0,0,1,2046,618a110.14,110.14,0,0,1-12.14,11.13A126.91,126.91,0,0,1,2005.75,646a137.34,137.34,0,0,1-31.26,9.34,144.19,144.19,0,0,1-32.42,1.89c-1.39,0-2.65-.18-4-0.27l-1-.07-0.55-.05-0.51-.05-2-.22c-1.35-.12-2.69-0.34-4-0.53s-2.67-.42-4-0.65a145,145,0,0,1-15.65-3.74,214.65,214.65,0,0,1-29.57-11.4c-19-8.89-36.6-19.66-53.26-31.07-8.35-5.68-16.41-11.61-24.32-17.57s-15.6-12-23.13-18.13c-15.05-12.2-29.47-24.48-43.39-36.55-27.82-24.15-53.69-47.42-77.79-68.62-6-5.3-11.94-10.49-17.74-15.48s-11.67-9.61-17.51-14a262.09,262.09,0,0,0-34.89-22.07,191.06,191.06,0,0,0-33.53-13.8,150.12,150.12,0,0,0-15.66-3.8,133.48,133.48,0,0,0-14.56-1.93,127.54,127.54,0,0,0-24.82.47,122,122,0,0,0-18,3.56c-4.82,1.34-8.43,2.64-10.85,3.54l-3.66,1.44Z" transform="translate(-1371.16 -395.3)"/><path class="cls-7" d="M1763.9,589.88l-1,.76c-0.64.5-1.64,1.27-2.94,2.23-2.61,1.93-6.54,4.7-11.79,8.12s-11.81,7.49-19.65,12-17,9.64-27.33,15-22,11-34.88,16.73-27,11.45-42.39,16.8c-7.69,2.68-15.7,5.26-24,7.62s-17,4.58-26,6.42a279.87,279.87,0,0,1-27.86,4.41c-2.4.28-4.82,0.45-7.25,0.67l-3.67.24c-1.22.09-2.46,0.15-3.69,0.19-4.94.24-9.94,0.25-15,.1s-10.17-.54-15.31-1.16c-2.57-.29-5.14-0.71-7.73-1.12l-3.87-.74-1-.19-0.95-.21-1.9-.42a176.16,176.16,0,0,1-30.68-9.81,149.32,149.32,0,0,1-29.14-16.39,128.9,128.9,0,0,1-25.09-23.83,117.08,117.08,0,0,1-10-14.69,108.83,108.83,0,0,1-7.63-16.37,94.09,94.09,0,0,1-6-36.35,77.15,77.15,0,0,1,3.15-18.74,64.66,64.66,0,0,1,8.25-17.51l0.69-1c0.11-.17.28-0.4,0.37-0.52l0.34-.47c0.46-.62.88-1.23,1.39-1.88,1-1.3,2-2.54,3-3.77,2-2.44,4.11-4.82,6.25-7.15q6.47-6.94,13.61-13.26a249.58,249.58,0,0,1,30.5-23.18A234.16,234.16,0,0,1,1479,454.09a189.21,189.21,0,0,1,37.64-11.83,150.17,150.17,0,0,1,39.88-2.7,131.82,131.82,0,0,1,39.32,8.93,137.28,137.28,0,0,1,18.25,8.84,151.49,151.49,0,0,1,16.8,11.35l2,1.55,2,1.62c1.3,1.08,2.62,2.16,3.86,3.24l7.54,6.56q7.51,6.59,14.94,13.29,14.85,13.39,29.5,27c19.55,18.13,39,36.35,58.64,54.15s39.49,35.24,60,51.5c10.27,8.12,20.69,15.95,31.39,23.26a335.86,335.86,0,0,0,33,20.12,185.3,185.3,0,0,0,35.09,14.57,112.89,112.89,0,0,0,18.35,3.74,87.61,87.61,0,0,0,9.25.58c3.16,0,6.22-.05,9.31-0.26a132.28,132.28,0,0,0,35.9-7.36,139.92,139.92,0,0,0,16.6-7.17,145.39,145.39,0,0,0,15.34-9.16A139.55,139.55,0,0,0,2027.4,655a128.48,128.48,0,0,0,12.07-12.49c1.86-2.19,3.6-4.46,5.28-6.76s3.25-4.66,4.71-7.08c0.76-1.19,1.43-2.43,2.14-3.64s1.35-2.45,2-3.71c1.27-2.48,2.37-5,3.4-7.59,4-10.25,6-21.12,5-31.55a59.2,59.2,0,0,0-1.25-7.69,58.12,58.12,0,0,0-2.33-7.35,54.13,54.13,0,0,0-3.34-6.88l-0.23-.42c-0.08-.15-0.11-0.2-0.23-0.38l-0.53-.87c-0.35-.57-0.71-1.18-1.06-1.71-0.7-1.07-1.38-2.15-2.14-3.22a102.29,102.29,0,0,0-9.71-12A106.13,106.13,0,0,0,2030,531.28,111.66,111.66,0,0,0,2004.7,516a122.34,122.34,0,0,0-27.31-8.13,129.52,129.52,0,0,0-13.75-1.72c-2.28-.2-4.55-0.26-6.81-0.36s-4.51-.09-6.75,0A174.91,174.91,0,0,0,1924,508.2a213.65,213.65,0,0,0-24.22,5.51,286.78,286.78,0,0,0-42.18,16.06c-12.65,6-23.94,12.16-33.91,18.14s-18.66,11.68-26.09,16.82c-3.74,2.54-7.11,5-10.24,7.23s-5.89,4.33-8.39,6.2l-6.55,5c-1.88,1.45-3.44,2.7-4.71,3.7l-3.84,3h0Zm-1.23-1.55,3.83-3.05c1.27-1,2.82-2.27,4.71-3.73l6.55-5.06,8.37-6.28c3.12-2.25,6.48-4.77,10.21-7.35,7.41-5.23,16-11.13,26-17.28,2.5-1.51,5.05-3.1,7.71-4.66s5.37-3.17,8.2-4.73l4.28-2.4,4.42-2.37,2.25-1.21,2.3-1.17,4.67-2.37a299.51,299.51,0,0,1,42.37-17.29,217.61,217.61,0,0,1,24.62-6.24,175.75,175.75,0,0,1,26.81-3.14c2.32-.12,4.65-0.1,7-0.13s4.72,0.07,7.1.23a135.73,135.73,0,0,1,14.41,1.5,125.92,125.92,0,0,1,28.93,8.15,114.89,114.89,0,0,1,27.09,16,111.44,111.44,0,0,1,22.41,23.82c0.8,1.13,1.58,2.33,2.35,3.52,0.4,0.6.72,1.16,1.08,1.75l0.53,0.87c0.06,0.1.21,0.34,0.29,0.49l0.26,0.47a58.67,58.67,0,0,1,6.37,16.22,66.35,66.35,0,0,1,1.35,8.72,70.32,70.32,0,0,1,.09,8.85,75.79,75.79,0,0,1-1.06,8.8,86.71,86.71,0,0,1-2.12,8.62,88.17,88.17,0,0,1-3.05,8.35,108,108,0,0,1-19.4,29.89,132.39,132.39,0,0,1-13,12.56,144.91,144.91,0,0,1-84.69,33.61c-3.15.19-6.34,0.22-9.46,0.2a90.57,90.57,0,0,1-9.55-.62,115.41,115.41,0,0,1-18.76-3.85,194.82,194.82,0,0,1-35.59-14.71c-22.88-12-44.32-27.1-65.15-43.12s-41-33.26-60.9-50.84-39.54-35.65-59.26-53.54c-9.86-9-19.74-17.88-29.7-26.68q-7.47-6.6-15-13.1l-7.56-6.45c-1.27-1.09-2.53-2.1-3.8-3.13l-1.9-1.54-1.95-1.47a145.49,145.49,0,0,0-16.23-10.75,131.09,131.09,0,0,0-17.51-8.27,125.33,125.33,0,0,0-37.48-8.13,144.53,144.53,0,0,0-38,2.89,182.09,182.09,0,0,0-36.14,11.66,238.21,238.21,0,0,0-62.67,40.47q-6.87,6.14-13.08,12.8c-2.06,2.22-4.05,4.48-6,6.79-0.94,1.16-1.88,2.33-2.75,3.48-0.44.56-.9,1.21-1.35,1.82l-0.34.46c-0.14.19-.2,0.26-0.3,0.42l-0.6.89a58.58,58.58,0,0,0-7.36,15.48,69.78,69.78,0,0,0-2.94,16.92,87.14,87.14,0,0,0,5.14,33.65,106.3,106.3,0,0,0,16.21,29.43,122.22,122.22,0,0,0,23.55,23,143.6,143.6,0,0,0,27.81,16.11,171.44,171.44,0,0,0,29.62,9.89l1.9,0.45,0.95,0.22,0.9,0.19,3.72,0.77c2.49,0.43,5,.87,7.47,1.19,5,0.67,9.94,1.13,14.87,1.33s9.82,0.27,14.66.1c1.21,0,2.42-.07,3.62-0.13l3.6-.18c2.39-.18,4.77-0.32,7.13-0.56,9.44-.86,18.63-2.25,27.52-3.93s17.49-3.73,25.8-5.94,16.29-4.64,24-7.18c15.37-5.1,29.51-10.61,42.39-16.15s24.53-11.07,34.89-16.37,19.48-10.29,27.31-14.82,14.35-8.6,19.56-12,9.12-6.15,11.69-8.06c1.29-1,2.24-1.68,2.89-2.19l1-.77h0Z" transform="translate(-1371.16 -395.3)"/><path class="cls-3" d="M1600.12,491l11.59,9.6c7.57,6.25,18.67,15.42,32.9,26.95s31.58,25.45,51.86,40.91,43.45,32.52,69.67,49.67c13.12,8.55,27,17.12,41.75,25.25a381.94,381.94,0,0,0,47,22.24c4.15,1.58,8.36,3.1,12.64,4.46,2.13,0.72,4.29,1.34,6.45,2s4.34,1.24,6.54,1.76c4.39,1.12,8.84,2.06,13.33,2.77a127.22,127.22,0,0,0,13.6,1.49c4.51,0.22,9.28.18,13.9,0s9.38-.52,14.07-1.05a181.9,181.9,0,0,0,28-5.38,147.88,147.88,0,0,0,27-10.32,123.65,123.65,0,0,0,12.6-7.28,109.75,109.75,0,0,0,11.57-8.86,86.14,86.14,0,0,0,10.05-10.53,69.29,69.29,0,0,0,7.83-12.22,57.86,57.86,0,0,0,6.19-28.12,64,64,0,0,0-2.24-14.52,80,80,0,0,0-5.36-13.92l-0.2-.42c-0.07-.15-0.1-0.2-0.19-0.39l-0.45-.86c-0.3-.57-0.6-1.16-0.9-1.71-0.62-1.08-1.19-2.16-1.86-3.24-1.27-2.17-2.68-4.26-4.12-6.34a101.14,101.14,0,0,0-9.69-11.64,98.5,98.5,0,0,0-24.28-18.19,107.5,107.5,0,0,0-28.76-10.26,124.26,124.26,0,0,0-15.23-2.15,133.12,133.12,0,0,0-15.42-.35q-7.72.26-15.41,1.23c-5.11.69-10.2,1.53-15.25,2.6-20.21,4.31-39.69,11.59-58.19,20.43a411.47,411.47,0,0,0-52.78,30.61l-3.13,2.11-3.09,2.16c-2.05,1.45-4.12,2.87-6.14,4.35l-6.07,4.41-6,4.48c-2,1.49-3.94,3-5.91,4.53l-2.94,2.27-2.89,2.32-5.79,4.63c-2,1.55-4,3-6,4.38-8.18,5.56-16.6,10.52-25,15.28s-16.9,9.24-25.35,13.53c-16.92,8.56-33.83,16.26-50.61,23-8.4,3.36-16.75,6.51-25.07,9.35s-16.57,5.51-24.77,7.85a385,385,0,0,1-48.22,10.79c-7.85,1.2-15.59,2.07-23.2,2.57a222.7,222.7,0,0,1-22.35.41c-14.56-.53-28.37-2.68-40.87-6.85l-4.48-1.57-4.46-1.67c-1.46-.57-2.9-1.16-4.32-1.74s-2.82-1.21-4.21-1.81a153.34,153.34,0,0,1-15.58-8,130.82,130.82,0,0,1-13.41-9,110.14,110.14,0,0,1-11-9.73,93.54,93.54,0,0,1-15.06-19.69,93.08,93.08,0,0,1-7.44-16.67,97.34,97.34,0,0,1-3-10.88l-0.73-3.79,0.66-.14,1,3.71c0.7,2.42,1.77,6,3.56,10.55a92.37,92.37,0,0,0,8.16,15.88,94.38,94.38,0,0,0,6.64,9.12,101.25,101.25,0,0,0,8.78,9.27,118.61,118.61,0,0,0,24.26,17.18,162.51,162.51,0,0,0,15.31,7.25c1.37,0.54,2.73,1.11,4.13,1.64s2.81,1.06,4.24,1.57l4.33,1.48,4.52,1.44a121.42,121.42,0,0,0,18.76,4.11,163.92,163.92,0,0,0,20.42,1.52,255.08,255.08,0,0,0,44.23-3.55c30.68-4.91,63.3-14.31,96.89-26.66,16.8-6.19,33.88-13.12,51-21q12.85-5.87,25.64-12.54c4.26-2.22,8.48-4.56,12.69-7s8.38-4.9,12.44-7.59c2-1.34,4-2.73,6-4.19l5.82-4.56,2.93-2.3,3-2.27c2-1.51,3.94-3.05,5.94-4.54,8-6,16.17-11.85,24.53-17.56a451.84,451.84,0,0,1,52.84-31.28c9.27-4.6,18.79-8.82,28.56-12.53,2.44-.93,4.91-1.79,7.38-2.67s5-1.69,7.48-2.42c5-1.58,10.1-2.9,15.22-4.11s10.33-2.15,15.56-2.92,10.52-1.24,15.82-1.49a137.83,137.83,0,0,1,15.95.14,129.23,129.23,0,0,1,15.87,2,111.94,111.94,0,0,1,30.31,10.38,104.17,104.17,0,0,1,25.91,18.92,107.09,107.09,0,0,1,10.44,12.22c1.55,2.18,3.08,4.39,4.46,6.68,0.72,1.12,1.38,2.33,2.06,3.5,0.33,0.58.62,1.15,0.94,1.72l0.46,0.86c0.06,0.1.18,0.34,0.25,0.48l0.22,0.45a86.36,86.36,0,0,1,6,15,70.51,70.51,0,0,1,2.67,16,65.83,65.83,0,0,1-.12,8.14,64.63,64.63,0,0,1-6.45,23.31,76.31,76.31,0,0,1-8.49,13.55,93.29,93.29,0,0,1-10.79,11.53,109.74,109.74,0,0,1-12.33,9.58,131,131,0,0,1-13.34,7.77,155.31,155.31,0,0,1-28.32,10.94,177.61,177.61,0,0,1-29.23,5.62q-7.33.79-14.63,1c-4.92.15-9.65,0.18-14.58-.08a121.69,121.69,0,0,1-14.39-1.72c-4.72-.82-9.35-1.86-13.9-3.08a217.27,217.27,0,0,1-26.28-8.9,387.89,387.89,0,0,1-47.29-23.52c-14.74-8.51-28.55-17.41-41.57-26.27-26-17.77-48.91-35.31-68.89-51.22s-37-30.23-51-42.09-24.82-21.32-32.23-27.76Z" transform="translate(-1371.16 -395.3)"/><path class="cls-3" d="M1396.59,595.44" transform="translate(-1371.16 -395.3)"/><path class="cls-8" d="M1770.18,574.87l-0.7.57-2.11,1.66c-1.87,1.45-4.66,3.56-8.38,6.2-7.43,5.29-18.54,12.74-33.19,21.41a538.4,538.4,0,0,1-54.5,28.23c-10.84,4.82-22.56,9.57-35.18,13.89a312.2,312.2,0,0,1-40.55,11,205.19,205.19,0,0,1-45.7,4.11,140.88,140.88,0,0,1-24.22-2.82,117.44,117.44,0,0,1-12.15-3.18q-3-1-6-2.11l-1.49-.58-1.47-.61-2.88-1.19a204.39,204.39,0,0,1-23-11.58c-3.76-2.19-7.48-4.52-11.12-7s-7.24-5.09-10.72-7.9-6.89-5.73-10.2-8.82-6.47-6.36-9.53-9.76a147.48,147.48,0,0,1-16.53-22.21,131.71,131.71,0,0,1-12-25.55,117.86,117.86,0,0,1-3.82-13.83,104.14,104.14,0,0,1-2-14.35,86.13,86.13,0,0,1,2.9-29.16c0.67-2.39,1.5-4.74,2.41-7.06a72.52,72.52,0,0,1,3.18-6.79,62.37,62.37,0,0,1,4-6.41c0.19-.27.33-0.5,0.56-0.8l0.53-.72c0.36-.48.69-0.95,1.08-1.45,0.77-1,1.54-2,2.32-2.92a129.68,129.68,0,0,1,10-10.8q5.26-5.13,11-9.73a171.63,171.63,0,0,1,24.42-16.37,159.35,159.35,0,0,1,55.73-18.73,142.55,142.55,0,0,1,29.53-.82,134.66,134.66,0,0,1,14.63,1.92,136.12,136.12,0,0,1,14.31,3.44q7,2.12,13.84,4.86t13.25,6.15a182,182,0,0,1,24.51,15.47l2.88,2.17,2.82,2.24c1.9,1.47,3.69,3.06,5.54,4.58,3.62,3.1,7.19,6.21,10.76,9.33q10.67,9.37,21.17,18.7l20.82,18.57q10.33,9.23,20.56,18.25c27.28,24,54.55,46.26,81,66.29q5,3.76,9.92,7.38t9.85,7.16c6.57,4.66,13.08,9.18,19.58,13.44a369.55,369.55,0,0,0,38.83,22.45c6.43,3.17,12.84,6,19.22,8.43a159.73,159.73,0,0,0,19,5.88,108.57,108.57,0,0,0,18.6,2.84l2.27,0.11,1.08,0H1936c0.8,0,1.47,0,2.19,0s1.45-.08,2.17-0.11a64.71,64.71,0,0,0,8.54-1.21,82.08,82.08,0,0,0,15.78-5.1,102.59,102.59,0,0,0,13.79-7.28A121.18,121.18,0,0,0,2000,627.47a106.43,106.43,0,0,0,14.07-17.34,73,73,0,0,0,7.44-14.75,47.62,47.62,0,0,0,2.49-10c0.15-1.16.23-2,.25-2.63l0-.89h0.4v0.91c0,0.6,0,1.5-.08,2.68s-0.23,2.65-.51,4.38a53.4,53.4,0,0,1-1.39,5.92,72.34,72.34,0,0,1-6.77,15.5,106.43,106.43,0,0,1-13.57,18.46,121,121,0,0,1-21.52,18.69,94.93,94.93,0,0,1-30.78,14,70.32,70.32,0,0,1-9.24,1.58c-0.8.06-1.58,0.15-2.41,0.19s-1.69.1-2.43,0.1l-1.16,0h-1.25l-2.42-.05a114.83,114.83,0,0,1-19.73-2.46c-13.33-2.74-26.74-7.72-40.07-14a318.35,318.35,0,0,1-39.7-22.93q-9.87-6.58-19.69-13.85-4.91-3.64-9.82-7.42t-9.77-7.74c-26.09-21-51.81-45.07-78.81-69.43q-10.11-9.16-20.44-18.39c-6.88-6.16-13.79-12.38-20.82-18.55s-14.09-12.39-21.28-18.53c-3.59-3.07-7.2-6.15-10.84-9.19-1.84-1.48-3.64-3-5.53-4.43l-2.81-2.16-2.87-2.09c-15.34-11.08-32.54-19.93-50.92-25a136,136,0,0,0-56.62-3.53,154.38,154.38,0,0,0-53.57,18.8,165.6,165.6,0,0,0-23.35,16.1q-5.46,4.5-10.44,9.47a123.19,123.19,0,0,0-9.35,10.39c-0.74.9-1.41,1.81-2.1,2.71-0.34.44-.7,1-1,1.43l-0.52.72c-0.13.17-.3,0.45-0.46,0.67a57.77,57.77,0,0,0-3.47,5.77,65.75,65.75,0,0,0-2.79,6.13c-0.79,2.11-1.53,4.23-2.11,6.41a79.08,79.08,0,0,0-2.37,26.78,103.37,103.37,0,0,0,1.93,13.34,110.51,110.51,0,0,0,3.63,12.94,124.3,124.3,0,0,0,11.43,24.07,155.27,155.27,0,0,0,34.5,38.94,184.17,184.17,0,0,0,20.78,14.66,210,210,0,0,0,22,11.58l2.86,1.26,1.39,0.61,1.39,0.58q2.79,1.14,5.62,2.11a111.34,111.34,0,0,0,11.45,3.27,134.88,134.88,0,0,0,23.18,3.12,195.67,195.67,0,0,0,44.57-3.31,307.71,307.71,0,0,0,40.11-10.3c12.54-4.08,24.22-8.62,35.05-13.25a535.23,535.23,0,0,0,54.57-27.26c14.7-8.41,25.86-15.67,33.32-20.81,3.73-2.57,6.53-4.62,8.4-6l2.1-1.61,0.71-.56Z" transform="translate(-1371.16 -395.3)"/></svg>